G04 #@! TF.GenerationSoftware,KiCad,Pcbnew,(5.1.5)-3*
G04 #@! TF.CreationDate,2020-11-22T23:45:11-05:00*
G04 #@! TF.ProjectId,OceanSense,4f636561-6e53-4656-9e73-652e6b696361,rev?*
G04 #@! TF.SameCoordinates,Original*
G04 #@! TF.FileFunction,Copper,L1,Top*
G04 #@! TF.FilePolarity,Positive*
%FSLAX46Y46*%
G04 Gerber Fmt 4.6, Leading zero omitted, Abs format (unit mm)*
G04 Created by KiCad (PCBNEW (5.1.5)-3) date 2020-11-22 23:45:11*
%MOMM*%
%LPD*%
G04 APERTURE LIST*
%ADD10C,1.600200*%
%ADD11C,4.775200*%
%ADD12C,2.641600*%
%ADD13C,7.112000*%
%ADD14C,6.350000*%
%ADD15C,1.600000*%
%ADD16O,2.200000X1.740000*%
%ADD17C,0.100000*%
%ADD18C,6.400000*%
%ADD19C,1.422400*%
%ADD20C,1.800000*%
%ADD21R,1.800000X1.800000*%
%ADD22R,1.600000X1.600000*%
%ADD23C,0.800000*%
%ADD24C,1.270000*%
%ADD25C,0.508000*%
%ADD26C,0.203200*%
G04 APERTURE END LIST*
D10*
X25115000Y443875000D03*
X22575000Y443875000D03*
X41910000Y460629000D03*
X44450000Y460629000D03*
X46990000Y460629000D03*
X49530000Y460629000D03*
X52070000Y460629000D03*
X54610000Y460629000D03*
X57150000Y460629000D03*
D11*
X-3662000Y502814000D03*
D12*
X-11612200Y502814000D03*
X-30738400Y502814000D03*
X-30738400Y430551000D03*
X-11612200Y430551000D03*
D13*
X-38663200Y494305000D03*
X-21188000Y494305000D03*
X-3662000Y439060000D03*
D14*
X-21188000Y439060000D03*
D10*
X22620000Y517065000D03*
X22620000Y514525000D03*
X22620000Y511985000D03*
X22620000Y509445000D03*
X22620000Y506905000D03*
X22620000Y504365000D03*
X22620000Y501825000D03*
X22620000Y499285000D03*
X22620000Y496745000D03*
X22620000Y494205000D03*
X22620000Y491665000D03*
X22620000Y489125000D03*
X7380000Y489125000D03*
X7380000Y491665000D03*
X7380000Y494205000D03*
X7380000Y496745000D03*
X7380000Y499285000D03*
X7380000Y501825000D03*
X7380000Y504365000D03*
X7380000Y506905000D03*
X7380000Y509445000D03*
X7380000Y511985000D03*
X7380000Y514525000D03*
X7380000Y517065000D03*
X48890000Y507380000D03*
X46350000Y507380000D03*
X43810000Y507380000D03*
X41270000Y507380000D03*
X38730000Y507380000D03*
X36190000Y507380000D03*
X33650000Y507380000D03*
X31110000Y507380000D03*
X29845000Y500126000D03*
X32385000Y500126000D03*
X34925000Y500126000D03*
X37465000Y500126000D03*
X40005000Y500126000D03*
X42545000Y500126000D03*
X10160000Y478663000D03*
X12700000Y478663000D03*
X15240000Y478663000D03*
X17780000Y478663000D03*
X53848000Y452628000D03*
X51308000Y452628000D03*
X48768000Y452628000D03*
X46228000Y452628000D03*
X43688000Y452628000D03*
X41148000Y452628000D03*
X38608000Y452628000D03*
X59563000Y436397400D03*
X59563000Y439648600D03*
X32893000Y436397400D03*
X32893000Y439648600D03*
D15*
X60300000Y485600000D03*
X57800000Y485600000D03*
D16*
X57800000Y492380000D03*
X57800000Y494920000D03*
X57800000Y497460000D03*
G04 #@! TA.AperFunction,ComponentPad*
D17*
G36*
X58674505Y500868796D02*
G01*
X58698773Y500865196D01*
X58722572Y500859235D01*
X58745671Y500850970D01*
X58767850Y500840480D01*
X58788893Y500827868D01*
X58808599Y500813253D01*
X58826777Y500796777D01*
X58843253Y500778599D01*
X58857868Y500758893D01*
X58870480Y500737850D01*
X58880970Y500715671D01*
X58889235Y500692572D01*
X58895196Y500668773D01*
X58898796Y500644505D01*
X58900000Y500620001D01*
X58900000Y499379999D01*
X58898796Y499355495D01*
X58895196Y499331227D01*
X58889235Y499307428D01*
X58880970Y499284329D01*
X58870480Y499262150D01*
X58857868Y499241107D01*
X58843253Y499221401D01*
X58826777Y499203223D01*
X58808599Y499186747D01*
X58788893Y499172132D01*
X58767850Y499159520D01*
X58745671Y499149030D01*
X58722572Y499140765D01*
X58698773Y499134804D01*
X58674505Y499131204D01*
X58650001Y499130000D01*
X56949999Y499130000D01*
X56925495Y499131204D01*
X56901227Y499134804D01*
X56877428Y499140765D01*
X56854329Y499149030D01*
X56832150Y499159520D01*
X56811107Y499172132D01*
X56791401Y499186747D01*
X56773223Y499203223D01*
X56756747Y499221401D01*
X56742132Y499241107D01*
X56729520Y499262150D01*
X56719030Y499284329D01*
X56710765Y499307428D01*
X56704804Y499331227D01*
X56701204Y499355495D01*
X56700000Y499379999D01*
X56700000Y500620001D01*
X56701204Y500644505D01*
X56704804Y500668773D01*
X56710765Y500692572D01*
X56719030Y500715671D01*
X56729520Y500737850D01*
X56742132Y500758893D01*
X56756747Y500778599D01*
X56773223Y500796777D01*
X56791401Y500813253D01*
X56811107Y500827868D01*
X56832150Y500840480D01*
X56854329Y500850970D01*
X56877428Y500859235D01*
X56901227Y500865196D01*
X56925495Y500868796D01*
X56949999Y500870000D01*
X58650001Y500870000D01*
X58674505Y500868796D01*
G37*
G04 #@! TD.AperFunction*
D18*
X-45000000Y520000000D03*
X60000000Y415000000D03*
X-45000000Y415000000D03*
X60000000Y520000000D03*
D19*
X-17000000Y512650000D03*
X-17000000Y519000000D03*
D20*
X-5035000Y519000000D03*
D21*
X-7575000Y519000000D03*
D22*
X16000000Y430000000D03*
D15*
X13500000Y430000000D03*
X16637000Y443865000D03*
X14137000Y443865000D03*
X28361000Y463677000D03*
X30861000Y463677000D03*
X11750000Y460000000D03*
X9250000Y460000000D03*
D23*
X12400000Y505600000D03*
X12500000Y503000000D03*
D24*
X27184000Y460000000D02*
X30861000Y463677000D01*
X11750000Y460000000D02*
X27184000Y460000000D01*
X11750000Y475173000D02*
X15240000Y478663000D01*
X11750000Y460000000D02*
X11750000Y475173000D01*
X31110000Y507380000D02*
X28620000Y507380000D01*
X26555000Y509445000D02*
X22620000Y509445000D01*
X28620000Y507380000D02*
X26555000Y509445000D01*
X57800000Y486731370D02*
X57800000Y492380000D01*
X57800000Y485600000D02*
X57800000Y486731370D01*
X44111000Y457750000D02*
X46990000Y460629000D01*
X36775000Y457750000D02*
X44111000Y457750000D01*
D25*
X30861000Y463677000D02*
X30861000Y463664000D01*
D24*
X30861000Y463664000D02*
X36775000Y457750000D01*
X44819000Y502400000D02*
X42545000Y500126000D01*
X61880000Y492380000D02*
X63500000Y494000000D01*
X57800000Y492380000D02*
X61880000Y492380000D01*
X63500000Y494000000D02*
X63500000Y502200000D01*
X63500000Y502200000D02*
X63300000Y502400000D01*
X63300000Y502400000D02*
X44819000Y502400000D01*
X31110000Y508810000D02*
X31110000Y507380000D01*
X49875000Y511200000D02*
X33500000Y511200000D01*
X33500000Y511200000D02*
X31110000Y508810000D01*
X52275000Y508800000D02*
X49875000Y511200000D01*
X42545000Y503645000D02*
X43900000Y505000000D01*
X42545000Y500126000D02*
X42545000Y503645000D01*
X43900000Y505000000D02*
X51275000Y505000000D01*
X51275000Y505000000D02*
X52275000Y506000000D01*
X52275000Y506000000D02*
X52275000Y508800000D01*
X13520000Y509445000D02*
X22620000Y509445000D01*
X11125000Y507050000D02*
X13520000Y509445000D01*
X15240000Y478663000D02*
X11125000Y482778000D01*
X11125000Y482778000D02*
X11125000Y507050000D01*
X59563000Y446913000D02*
X53848000Y452628000D01*
X59563000Y439648600D02*
X59563000Y446913000D01*
X46990000Y459486000D02*
X53848000Y452628000D01*
X46990000Y460629000D02*
X46990000Y459486000D01*
D26*
X38730000Y501401000D02*
X40005000Y500126000D01*
X38730000Y507380000D02*
X38730000Y501401000D01*
X42671000Y497460000D02*
X40005000Y500126000D01*
X57800000Y497460000D02*
X42671000Y497460000D01*
X9800000Y504485000D02*
X7380000Y506905000D01*
X12700000Y478663000D02*
X9800000Y481563000D01*
X9800000Y481563000D02*
X9800000Y504485000D01*
X12965685Y505600000D02*
X12400000Y505600000D01*
X36996611Y509113389D02*
X35338389Y509113389D01*
X38730000Y507380000D02*
X36996611Y509113389D01*
X35338389Y509113389D02*
X34925000Y508700000D01*
X34000000Y505600000D02*
X12965685Y505600000D01*
X34925000Y506525000D02*
X34000000Y505600000D01*
X34925000Y508700000D02*
X34925000Y506525000D01*
X36190000Y501401000D02*
X37465000Y500126000D01*
X36190000Y507380000D02*
X36190000Y501401000D01*
X10160000Y478663000D02*
X9073000Y479750000D01*
X9073000Y502672000D02*
X7380000Y504365000D01*
X9073000Y479750000D02*
X9073000Y502672000D01*
X37465000Y500126000D02*
X35339000Y498000000D01*
X14700000Y498000000D02*
X12500000Y500200000D01*
X35339000Y498000000D02*
X14700000Y498000000D01*
X12500000Y500200000D02*
X12500000Y503000000D01*
X42671000Y494920000D02*
X37465000Y500126000D01*
X57800000Y494920000D02*
X42671000Y494920000D01*
X24700000Y489585000D02*
X22620000Y491665000D01*
X24700000Y482025000D02*
X24700000Y489585000D01*
X44450000Y460629000D02*
X44450000Y462275000D01*
X44450000Y462275000D02*
X24700000Y482025000D01*
X28200000Y491300000D02*
X25295000Y494205000D01*
X28200000Y488700000D02*
X28200000Y491300000D01*
X25295000Y494205000D02*
X22620000Y494205000D01*
X54610000Y460629000D02*
X54610000Y462290000D01*
X54610000Y462290000D02*
X28200000Y488700000D01*
X21945000Y496745000D02*
X22620000Y496745000D01*
X24050000Y492950000D02*
X21450000Y492950000D01*
X20700000Y493700000D02*
X20700000Y495500000D01*
X49525000Y460634000D02*
X49525000Y462275000D01*
X21450000Y492950000D02*
X20700000Y493700000D01*
X49530000Y460629000D02*
X49525000Y460634000D01*
X20700000Y495500000D02*
X21945000Y496745000D01*
X25900000Y485900000D02*
X25900000Y491100000D01*
X49525000Y462275000D02*
X25900000Y485900000D01*
X25900000Y491100000D02*
X24050000Y492950000D01*
X22620000Y477280000D02*
X22620000Y489125000D01*
X37925000Y461975000D02*
X22620000Y477280000D01*
X41910000Y460629000D02*
X40564000Y461975000D01*
X40564000Y461975000D02*
X37925000Y461975000D01*
D24*
X13308000Y426000000D02*
X16000000Y428692000D01*
X-26187400Y426000000D02*
X13308000Y426000000D01*
X16000000Y428692000D02*
X16000000Y430000000D01*
X-30738400Y430551000D02*
X-26187400Y426000000D01*
X-11612200Y502814000D02*
X-11612200Y466612200D01*
X-11612200Y466612200D02*
X7000000Y448000000D01*
X12502000Y448000000D02*
X16637000Y443865000D01*
X7000000Y448000000D02*
X12502000Y448000000D01*
X16000000Y443228000D02*
X16637000Y443865000D01*
X16000000Y430000000D02*
X16000000Y443228000D01*
X22565000Y443865000D02*
X22575000Y443875000D01*
X16637000Y443865000D02*
X22565000Y443865000D01*
D26*
X4825000Y509140000D02*
X-5035000Y519000000D01*
X7380000Y501825000D02*
X6248488Y501825000D01*
X4825000Y503248488D02*
X4825000Y509140000D01*
X6248488Y501825000D02*
X4825000Y503248488D01*
X-17000000Y519000000D02*
X-7575000Y519000000D01*
D24*
X28666600Y443875000D02*
X32893000Y439648600D01*
X25115000Y443875000D02*
X28666600Y443875000D01*
M02*
