G04 #@! TF.GenerationSoftware,KiCad,Pcbnew,(5.1.5)-3*
G04 #@! TF.CreationDate,2020-11-07T14:44:15-05:00*
G04 #@! TF.ProjectId,OceanSense,4f636561-6e53-4656-9e73-652e6b696361,rev?*
G04 #@! TF.SameCoordinates,Original*
G04 #@! TF.FileFunction,Soldermask,Bot*
G04 #@! TF.FilePolarity,Negative*
%FSLAX46Y46*%
G04 Gerber Fmt 4.6, Leading zero omitted, Abs format (unit mm)*
G04 Created by KiCad (PCBNEW (5.1.5)-3) date 2020-11-07 14:44:15*
%MOMM*%
%LPD*%
G04 APERTURE LIST*
%ADD10C,0.100000*%
G04 APERTURE END LIST*
D10*
G36*
X60634239Y418188533D02*
G01*
X60948282Y418126066D01*
X61539926Y417880999D01*
X62072392Y417525216D01*
X62525216Y417072392D01*
X62880999Y416539926D01*
X63126066Y415948282D01*
X63251000Y415320196D01*
X63251000Y414679804D01*
X63126066Y414051718D01*
X62880999Y413460074D01*
X62525216Y412927608D01*
X62072392Y412474784D01*
X61539926Y412119001D01*
X60948282Y411873934D01*
X60634239Y411811467D01*
X60320197Y411749000D01*
X59679803Y411749000D01*
X59365761Y411811467D01*
X59051718Y411873934D01*
X58460074Y412119001D01*
X57927608Y412474784D01*
X57474784Y412927608D01*
X57119001Y413460074D01*
X56873934Y414051718D01*
X56749000Y414679804D01*
X56749000Y415320196D01*
X56873934Y415948282D01*
X57119001Y416539926D01*
X57474784Y417072392D01*
X57927608Y417525216D01*
X58460074Y417880999D01*
X59051718Y418126066D01*
X59365761Y418188533D01*
X59679803Y418251000D01*
X60320197Y418251000D01*
X60634239Y418188533D01*
G37*
G36*
X-44365761Y418188533D02*
G01*
X-44051718Y418126066D01*
X-43460074Y417880999D01*
X-42927608Y417525216D01*
X-42474784Y417072392D01*
X-42119001Y416539926D01*
X-41873934Y415948282D01*
X-41749000Y415320196D01*
X-41749000Y414679804D01*
X-41873934Y414051718D01*
X-42119001Y413460074D01*
X-42474784Y412927608D01*
X-42927608Y412474784D01*
X-43460074Y412119001D01*
X-44051718Y411873934D01*
X-44365761Y411811467D01*
X-44679803Y411749000D01*
X-45320197Y411749000D01*
X-45634239Y411811467D01*
X-45948282Y411873934D01*
X-46539926Y412119001D01*
X-47072392Y412474784D01*
X-47525216Y412927608D01*
X-47880999Y413460074D01*
X-48126066Y414051718D01*
X-48251000Y414679804D01*
X-48251000Y415320196D01*
X-48126066Y415948282D01*
X-47880999Y416539926D01*
X-47525216Y417072392D01*
X-47072392Y417525216D01*
X-46539926Y417880999D01*
X-45948282Y418126066D01*
X-45634239Y418188533D01*
X-45320197Y418251000D01*
X-44679803Y418251000D01*
X-44365761Y418188533D01*
G37*
G36*
X13748228Y430818297D02*
G01*
X13903100Y430754147D01*
X14042481Y430661015D01*
X14161015Y430542481D01*
X14254147Y430403100D01*
X14318297Y430248228D01*
X14351000Y430083816D01*
X14351000Y429916184D01*
X14318297Y429751772D01*
X14254147Y429596900D01*
X14161015Y429457519D01*
X14042481Y429338985D01*
X13903100Y429245853D01*
X13748228Y429181703D01*
X13583816Y429149000D01*
X13416184Y429149000D01*
X13251772Y429181703D01*
X13096900Y429245853D01*
X12957519Y429338985D01*
X12838985Y429457519D01*
X12745853Y429596900D01*
X12681703Y429751772D01*
X12649000Y429916184D01*
X12649000Y430083816D01*
X12681703Y430248228D01*
X12745853Y430403100D01*
X12838985Y430542481D01*
X12957519Y430661015D01*
X13096900Y430754147D01*
X13251772Y430818297D01*
X13416184Y430851000D01*
X13583816Y430851000D01*
X13748228Y430818297D01*
G37*
G36*
X16851000Y429149000D02*
G01*
X15149000Y429149000D01*
X15149000Y430851000D01*
X16851000Y430851000D01*
X16851000Y429149000D01*
G37*
G36*
X-11212061Y431870083D02*
G01*
X-10962409Y431766674D01*
X-10737728Y431616547D01*
X-10546653Y431425472D01*
X-10396526Y431200791D01*
X-10293117Y430951139D01*
X-10240400Y430686111D01*
X-10240400Y430415889D01*
X-10293117Y430150861D01*
X-10396526Y429901209D01*
X-10546653Y429676528D01*
X-10737728Y429485453D01*
X-10962409Y429335326D01*
X-11212061Y429231917D01*
X-11477089Y429179200D01*
X-11747311Y429179200D01*
X-12012339Y429231917D01*
X-12261991Y429335326D01*
X-12486672Y429485453D01*
X-12677747Y429676528D01*
X-12827874Y429901209D01*
X-12931283Y430150861D01*
X-12984000Y430415889D01*
X-12984000Y430686111D01*
X-12931283Y430951139D01*
X-12827874Y431200791D01*
X-12677747Y431425472D01*
X-12486672Y431616547D01*
X-12261991Y431766674D01*
X-12012339Y431870083D01*
X-11747311Y431922800D01*
X-11477089Y431922800D01*
X-11212061Y431870083D01*
G37*
G36*
X-30338261Y431870083D02*
G01*
X-30088609Y431766674D01*
X-29863928Y431616547D01*
X-29672853Y431425472D01*
X-29522726Y431200791D01*
X-29419317Y430951139D01*
X-29366600Y430686111D01*
X-29366600Y430415889D01*
X-29419317Y430150861D01*
X-29522726Y429901209D01*
X-29672853Y429676528D01*
X-29863928Y429485453D01*
X-30088609Y429335326D01*
X-30338261Y429231917D01*
X-30603289Y429179200D01*
X-30873511Y429179200D01*
X-31138539Y429231917D01*
X-31388191Y429335326D01*
X-31612872Y429485453D01*
X-31803947Y429676528D01*
X-31954074Y429901209D01*
X-32057483Y430150861D01*
X-32110200Y430415889D01*
X-32110200Y430686111D01*
X-32057483Y430951139D01*
X-31954074Y431200791D01*
X-31803947Y431425472D01*
X-31612872Y431616547D01*
X-31388191Y431766674D01*
X-31138539Y431870083D01*
X-30873511Y431922800D01*
X-30603289Y431922800D01*
X-30338261Y431870083D01*
G37*
G36*
X33059041Y437232147D02*
G01*
X33141257Y437215793D01*
X33205414Y437189218D01*
X33296146Y437151636D01*
X33435544Y437058493D01*
X33554093Y436939944D01*
X33647236Y436800546D01*
X33711393Y436645656D01*
X33744100Y436481227D01*
X33744100Y436313573D01*
X33711393Y436149144D01*
X33647236Y435994254D01*
X33554093Y435854856D01*
X33435544Y435736307D01*
X33296146Y435643164D01*
X33205414Y435605582D01*
X33141257Y435579007D01*
X33059042Y435562654D01*
X32976827Y435546300D01*
X32809173Y435546300D01*
X32726958Y435562654D01*
X32644743Y435579007D01*
X32580586Y435605582D01*
X32489854Y435643164D01*
X32350456Y435736307D01*
X32231907Y435854856D01*
X32138764Y435994254D01*
X32074607Y436149144D01*
X32041900Y436313573D01*
X32041900Y436481227D01*
X32074607Y436645656D01*
X32138764Y436800546D01*
X32231907Y436939944D01*
X32350456Y437058493D01*
X32489854Y437151636D01*
X32580586Y437189218D01*
X32644743Y437215793D01*
X32726959Y437232147D01*
X32809173Y437248500D01*
X32976827Y437248500D01*
X33059041Y437232147D01*
G37*
G36*
X59729041Y437232147D02*
G01*
X59811257Y437215793D01*
X59875414Y437189218D01*
X59966146Y437151636D01*
X60105544Y437058493D01*
X60224093Y436939944D01*
X60317236Y436800546D01*
X60381393Y436645656D01*
X60414100Y436481227D01*
X60414100Y436313573D01*
X60381393Y436149144D01*
X60317236Y435994254D01*
X60224093Y435854856D01*
X60105544Y435736307D01*
X59966146Y435643164D01*
X59875414Y435605582D01*
X59811257Y435579007D01*
X59729042Y435562654D01*
X59646827Y435546300D01*
X59479173Y435546300D01*
X59396958Y435562654D01*
X59314743Y435579007D01*
X59250586Y435605582D01*
X59159854Y435643164D01*
X59020456Y435736307D01*
X58901907Y435854856D01*
X58808764Y435994254D01*
X58744607Y436149144D01*
X58711900Y436313573D01*
X58711900Y436481227D01*
X58744607Y436645656D01*
X58808764Y436800546D01*
X58901907Y436939944D01*
X59020456Y437058493D01*
X59159854Y437151636D01*
X59250586Y437189218D01*
X59314743Y437215793D01*
X59396959Y437232147D01*
X59479173Y437248500D01*
X59646827Y437248500D01*
X59729041Y437232147D01*
G37*
G36*
X-2721012Y442162027D02*
G01*
X-2133918Y441918845D01*
X-2133916Y441918844D01*
X-1605545Y441565798D01*
X-1156202Y441116455D01*
X-803156Y440588084D01*
X-803155Y440588082D01*
X-559973Y440000988D01*
X-436000Y439377735D01*
X-436000Y438742265D01*
X-559973Y438119012D01*
X-803155Y437531918D01*
X-803156Y437531916D01*
X-1156202Y437003545D01*
X-1605545Y436554202D01*
X-2133916Y436201156D01*
X-2133917Y436201155D01*
X-2133918Y436201155D01*
X-2721012Y435957973D01*
X-3344265Y435834000D01*
X-3979735Y435834000D01*
X-4602988Y435957973D01*
X-5190082Y436201155D01*
X-5190083Y436201155D01*
X-5190084Y436201156D01*
X-5718455Y436554202D01*
X-6167798Y437003545D01*
X-6520844Y437531916D01*
X-6520845Y437531918D01*
X-6764027Y438119012D01*
X-6888000Y438742265D01*
X-6888000Y439377735D01*
X-6764027Y440000988D01*
X-6520845Y440588082D01*
X-6520844Y440588084D01*
X-6167798Y441116455D01*
X-5718455Y441565798D01*
X-5190084Y441918844D01*
X-5190082Y441918845D01*
X-4602988Y442162027D01*
X-3979735Y442286000D01*
X-3344265Y442286000D01*
X-2721012Y442162027D01*
G37*
G36*
X-20247012Y442162027D02*
G01*
X-19659918Y441918845D01*
X-19659916Y441918844D01*
X-19131545Y441565798D01*
X-18682202Y441116455D01*
X-18329156Y440588084D01*
X-18329155Y440588082D01*
X-18085973Y440000988D01*
X-17962000Y439377735D01*
X-17962000Y438742265D01*
X-18085973Y438119012D01*
X-18329155Y437531918D01*
X-18329156Y437531916D01*
X-18682202Y437003545D01*
X-19131545Y436554202D01*
X-19659916Y436201156D01*
X-19659917Y436201155D01*
X-19659918Y436201155D01*
X-20247012Y435957973D01*
X-20870265Y435834000D01*
X-21505735Y435834000D01*
X-22128988Y435957973D01*
X-22716082Y436201155D01*
X-22716083Y436201155D01*
X-22716084Y436201156D01*
X-23244455Y436554202D01*
X-23693798Y437003545D01*
X-24046844Y437531916D01*
X-24046845Y437531918D01*
X-24290027Y438119012D01*
X-24414000Y438742265D01*
X-24414000Y439377735D01*
X-24290027Y440000988D01*
X-24046845Y440588082D01*
X-24046844Y440588084D01*
X-23693798Y441116455D01*
X-23244455Y441565798D01*
X-22716084Y441918844D01*
X-22716082Y441918845D01*
X-22128988Y442162027D01*
X-21505735Y442286000D01*
X-20870265Y442286000D01*
X-20247012Y442162027D01*
G37*
G36*
X33059042Y440483346D02*
G01*
X33141257Y440466993D01*
X33205414Y440440418D01*
X33296146Y440402836D01*
X33435544Y440309693D01*
X33554093Y440191144D01*
X33647236Y440051746D01*
X33668260Y440000989D01*
X33711393Y439896857D01*
X33744100Y439732426D01*
X33744100Y439564774D01*
X33711393Y439400343D01*
X33684818Y439336186D01*
X33647236Y439245454D01*
X33554093Y439106056D01*
X33435544Y438987507D01*
X33296146Y438894364D01*
X33205414Y438856782D01*
X33141257Y438830207D01*
X33059041Y438813853D01*
X32976827Y438797500D01*
X32809173Y438797500D01*
X32726959Y438813853D01*
X32644743Y438830207D01*
X32580586Y438856782D01*
X32489854Y438894364D01*
X32350456Y438987507D01*
X32231907Y439106056D01*
X32138764Y439245454D01*
X32101182Y439336186D01*
X32074607Y439400343D01*
X32041900Y439564774D01*
X32041900Y439732426D01*
X32074607Y439896857D01*
X32117740Y440000989D01*
X32138764Y440051746D01*
X32231907Y440191144D01*
X32350456Y440309693D01*
X32489854Y440402836D01*
X32580586Y440440418D01*
X32644743Y440466993D01*
X32726958Y440483346D01*
X32809173Y440499700D01*
X32976827Y440499700D01*
X33059042Y440483346D01*
G37*
G36*
X59729042Y440483346D02*
G01*
X59811257Y440466993D01*
X59875414Y440440418D01*
X59966146Y440402836D01*
X60105544Y440309693D01*
X60224093Y440191144D01*
X60317236Y440051746D01*
X60338260Y440000989D01*
X60381393Y439896857D01*
X60414100Y439732426D01*
X60414100Y439564774D01*
X60381393Y439400343D01*
X60354818Y439336186D01*
X60317236Y439245454D01*
X60224093Y439106056D01*
X60105544Y438987507D01*
X59966146Y438894364D01*
X59875414Y438856782D01*
X59811257Y438830207D01*
X59729041Y438813853D01*
X59646827Y438797500D01*
X59479173Y438797500D01*
X59396959Y438813853D01*
X59314743Y438830207D01*
X59250586Y438856782D01*
X59159854Y438894364D01*
X59020456Y438987507D01*
X58901907Y439106056D01*
X58808764Y439245454D01*
X58771182Y439336186D01*
X58744607Y439400343D01*
X58711900Y439564774D01*
X58711900Y439732426D01*
X58744607Y439896857D01*
X58787740Y440000989D01*
X58808764Y440051746D01*
X58901907Y440191144D01*
X59020456Y440309693D01*
X59159854Y440402836D01*
X59250586Y440440418D01*
X59314743Y440466993D01*
X59396958Y440483346D01*
X59479173Y440499700D01*
X59646827Y440499700D01*
X59729042Y440483346D01*
G37*
G36*
X14385228Y444683297D02*
G01*
X14540100Y444619147D01*
X14679481Y444526015D01*
X14798015Y444407481D01*
X14891147Y444268100D01*
X14955297Y444113228D01*
X14988000Y443948816D01*
X14988000Y443781184D01*
X14955297Y443616772D01*
X14891147Y443461900D01*
X14798015Y443322519D01*
X14679481Y443203985D01*
X14540100Y443110853D01*
X14385228Y443046703D01*
X14220816Y443014000D01*
X14053184Y443014000D01*
X13888772Y443046703D01*
X13733900Y443110853D01*
X13594519Y443203985D01*
X13475985Y443322519D01*
X13382853Y443461900D01*
X13318703Y443616772D01*
X13286000Y443781184D01*
X13286000Y443948816D01*
X13318703Y444113228D01*
X13382853Y444268100D01*
X13475985Y444407481D01*
X13594519Y444526015D01*
X13733900Y444619147D01*
X13888772Y444683297D01*
X14053184Y444716000D01*
X14220816Y444716000D01*
X14385228Y444683297D01*
G37*
G36*
X16885228Y444683297D02*
G01*
X17040100Y444619147D01*
X17179481Y444526015D01*
X17298015Y444407481D01*
X17391147Y444268100D01*
X17455297Y444113228D01*
X17488000Y443948816D01*
X17488000Y443781184D01*
X17455297Y443616772D01*
X17391147Y443461900D01*
X17298015Y443322519D01*
X17179481Y443203985D01*
X17040100Y443110853D01*
X16885228Y443046703D01*
X16720816Y443014000D01*
X16553184Y443014000D01*
X16388772Y443046703D01*
X16233900Y443110853D01*
X16094519Y443203985D01*
X15975985Y443322519D01*
X15882853Y443461900D01*
X15818703Y443616772D01*
X15786000Y443781184D01*
X15786000Y443948816D01*
X15818703Y444113228D01*
X15882853Y444268100D01*
X15975985Y444407481D01*
X16094519Y444526015D01*
X16233900Y444619147D01*
X16388772Y444683297D01*
X16553184Y444716000D01*
X16720816Y444716000D01*
X16885228Y444683297D01*
G37*
G36*
X54014042Y453462746D02*
G01*
X54096257Y453446393D01*
X54160414Y453419818D01*
X54251146Y453382236D01*
X54390544Y453289093D01*
X54509093Y453170544D01*
X54602236Y453031146D01*
X54666393Y452876256D01*
X54699100Y452711827D01*
X54699100Y452544173D01*
X54666393Y452379744D01*
X54602236Y452224854D01*
X54509093Y452085456D01*
X54390544Y451966907D01*
X54251146Y451873764D01*
X54160414Y451836182D01*
X54096257Y451809607D01*
X54014041Y451793253D01*
X53931827Y451776900D01*
X53764173Y451776900D01*
X53681959Y451793253D01*
X53599743Y451809607D01*
X53535586Y451836182D01*
X53444854Y451873764D01*
X53305456Y451966907D01*
X53186907Y452085456D01*
X53093764Y452224854D01*
X53029607Y452379744D01*
X52996900Y452544173D01*
X52996900Y452711827D01*
X53029607Y452876256D01*
X53093764Y453031146D01*
X53186907Y453170544D01*
X53305456Y453289093D01*
X53444854Y453382236D01*
X53535586Y453419818D01*
X53599743Y453446393D01*
X53681958Y453462746D01*
X53764173Y453479100D01*
X53931827Y453479100D01*
X54014042Y453462746D01*
G37*
G36*
X48934042Y453462746D02*
G01*
X49016257Y453446393D01*
X49080414Y453419818D01*
X49171146Y453382236D01*
X49310544Y453289093D01*
X49429093Y453170544D01*
X49522236Y453031146D01*
X49586393Y452876256D01*
X49619100Y452711827D01*
X49619100Y452544173D01*
X49586393Y452379744D01*
X49522236Y452224854D01*
X49429093Y452085456D01*
X49310544Y451966907D01*
X49171146Y451873764D01*
X49080414Y451836182D01*
X49016257Y451809607D01*
X48934041Y451793253D01*
X48851827Y451776900D01*
X48684173Y451776900D01*
X48601959Y451793253D01*
X48519743Y451809607D01*
X48455586Y451836182D01*
X48364854Y451873764D01*
X48225456Y451966907D01*
X48106907Y452085456D01*
X48013764Y452224854D01*
X47949607Y452379744D01*
X47916900Y452544173D01*
X47916900Y452711827D01*
X47949607Y452876256D01*
X48013764Y453031146D01*
X48106907Y453170544D01*
X48225456Y453289093D01*
X48364854Y453382236D01*
X48455586Y453419818D01*
X48519743Y453446393D01*
X48601958Y453462746D01*
X48684173Y453479100D01*
X48851827Y453479100D01*
X48934042Y453462746D01*
G37*
G36*
X46394042Y453462746D02*
G01*
X46476257Y453446393D01*
X46540414Y453419818D01*
X46631146Y453382236D01*
X46770544Y453289093D01*
X46889093Y453170544D01*
X46982236Y453031146D01*
X47046393Y452876256D01*
X47079100Y452711827D01*
X47079100Y452544173D01*
X47046393Y452379744D01*
X46982236Y452224854D01*
X46889093Y452085456D01*
X46770544Y451966907D01*
X46631146Y451873764D01*
X46540414Y451836182D01*
X46476257Y451809607D01*
X46394041Y451793253D01*
X46311827Y451776900D01*
X46144173Y451776900D01*
X46061959Y451793253D01*
X45979743Y451809607D01*
X45915586Y451836182D01*
X45824854Y451873764D01*
X45685456Y451966907D01*
X45566907Y452085456D01*
X45473764Y452224854D01*
X45409607Y452379744D01*
X45376900Y452544173D01*
X45376900Y452711827D01*
X45409607Y452876256D01*
X45473764Y453031146D01*
X45566907Y453170544D01*
X45685456Y453289093D01*
X45824854Y453382236D01*
X45915586Y453419818D01*
X45979743Y453446393D01*
X46061958Y453462746D01*
X46144173Y453479100D01*
X46311827Y453479100D01*
X46394042Y453462746D01*
G37*
G36*
X43854042Y453462746D02*
G01*
X43936257Y453446393D01*
X44000414Y453419818D01*
X44091146Y453382236D01*
X44230544Y453289093D01*
X44349093Y453170544D01*
X44442236Y453031146D01*
X44506393Y452876256D01*
X44539100Y452711827D01*
X44539100Y452544173D01*
X44506393Y452379744D01*
X44442236Y452224854D01*
X44349093Y452085456D01*
X44230544Y451966907D01*
X44091146Y451873764D01*
X44000414Y451836182D01*
X43936257Y451809607D01*
X43854041Y451793253D01*
X43771827Y451776900D01*
X43604173Y451776900D01*
X43521959Y451793253D01*
X43439743Y451809607D01*
X43375586Y451836182D01*
X43284854Y451873764D01*
X43145456Y451966907D01*
X43026907Y452085456D01*
X42933764Y452224854D01*
X42869607Y452379744D01*
X42836900Y452544173D01*
X42836900Y452711827D01*
X42869607Y452876256D01*
X42933764Y453031146D01*
X43026907Y453170544D01*
X43145456Y453289093D01*
X43284854Y453382236D01*
X43375586Y453419818D01*
X43439743Y453446393D01*
X43521958Y453462746D01*
X43604173Y453479100D01*
X43771827Y453479100D01*
X43854042Y453462746D01*
G37*
G36*
X41314042Y453462746D02*
G01*
X41396257Y453446393D01*
X41460414Y453419818D01*
X41551146Y453382236D01*
X41690544Y453289093D01*
X41809093Y453170544D01*
X41902236Y453031146D01*
X41966393Y452876256D01*
X41999100Y452711827D01*
X41999100Y452544173D01*
X41966393Y452379744D01*
X41902236Y452224854D01*
X41809093Y452085456D01*
X41690544Y451966907D01*
X41551146Y451873764D01*
X41460414Y451836182D01*
X41396257Y451809607D01*
X41314041Y451793253D01*
X41231827Y451776900D01*
X41064173Y451776900D01*
X40981959Y451793253D01*
X40899743Y451809607D01*
X40835586Y451836182D01*
X40744854Y451873764D01*
X40605456Y451966907D01*
X40486907Y452085456D01*
X40393764Y452224854D01*
X40329607Y452379744D01*
X40296900Y452544173D01*
X40296900Y452711827D01*
X40329607Y452876256D01*
X40393764Y453031146D01*
X40486907Y453170544D01*
X40605456Y453289093D01*
X40744854Y453382236D01*
X40835586Y453419818D01*
X40899743Y453446393D01*
X40981958Y453462746D01*
X41064173Y453479100D01*
X41231827Y453479100D01*
X41314042Y453462746D01*
G37*
G36*
X38774042Y453462746D02*
G01*
X38856257Y453446393D01*
X38920414Y453419818D01*
X39011146Y453382236D01*
X39150544Y453289093D01*
X39269093Y453170544D01*
X39362236Y453031146D01*
X39426393Y452876256D01*
X39459100Y452711827D01*
X39459100Y452544173D01*
X39426393Y452379744D01*
X39362236Y452224854D01*
X39269093Y452085456D01*
X39150544Y451966907D01*
X39011146Y451873764D01*
X38920414Y451836182D01*
X38856257Y451809607D01*
X38774041Y451793253D01*
X38691827Y451776900D01*
X38524173Y451776900D01*
X38441959Y451793253D01*
X38359743Y451809607D01*
X38295586Y451836182D01*
X38204854Y451873764D01*
X38065456Y451966907D01*
X37946907Y452085456D01*
X37853764Y452224854D01*
X37789607Y452379744D01*
X37756900Y452544173D01*
X37756900Y452711827D01*
X37789607Y452876256D01*
X37853764Y453031146D01*
X37946907Y453170544D01*
X38065456Y453289093D01*
X38204854Y453382236D01*
X38295586Y453419818D01*
X38359743Y453446393D01*
X38441958Y453462746D01*
X38524173Y453479100D01*
X38691827Y453479100D01*
X38774042Y453462746D01*
G37*
G36*
X51474042Y453462746D02*
G01*
X51556257Y453446393D01*
X51620414Y453419818D01*
X51711146Y453382236D01*
X51850544Y453289093D01*
X51969093Y453170544D01*
X52062236Y453031146D01*
X52126393Y452876256D01*
X52159100Y452711827D01*
X52159100Y452544173D01*
X52126393Y452379744D01*
X52062236Y452224854D01*
X51969093Y452085456D01*
X51850544Y451966907D01*
X51711146Y451873764D01*
X51620414Y451836182D01*
X51556257Y451809607D01*
X51474041Y451793253D01*
X51391827Y451776900D01*
X51224173Y451776900D01*
X51141959Y451793253D01*
X51059743Y451809607D01*
X50995586Y451836182D01*
X50904854Y451873764D01*
X50765456Y451966907D01*
X50646907Y452085456D01*
X50553764Y452224854D01*
X50489607Y452379744D01*
X50456900Y452544173D01*
X50456900Y452711827D01*
X50489607Y452876256D01*
X50553764Y453031146D01*
X50646907Y453170544D01*
X50765456Y453289093D01*
X50904854Y453382236D01*
X50995586Y453419818D01*
X51059743Y453446393D01*
X51141958Y453462746D01*
X51224173Y453479100D01*
X51391827Y453479100D01*
X51474042Y453462746D01*
G37*
G36*
X11998228Y460818297D02*
G01*
X12153100Y460754147D01*
X12292481Y460661015D01*
X12411015Y460542481D01*
X12504147Y460403100D01*
X12568297Y460248228D01*
X12601000Y460083816D01*
X12601000Y459916184D01*
X12568297Y459751772D01*
X12504147Y459596900D01*
X12411015Y459457519D01*
X12292481Y459338985D01*
X12153100Y459245853D01*
X11998228Y459181703D01*
X11833816Y459149000D01*
X11666184Y459149000D01*
X11501772Y459181703D01*
X11346900Y459245853D01*
X11207519Y459338985D01*
X11088985Y459457519D01*
X10995853Y459596900D01*
X10931703Y459751772D01*
X10899000Y459916184D01*
X10899000Y460083816D01*
X10931703Y460248228D01*
X10995853Y460403100D01*
X11088985Y460542481D01*
X11207519Y460661015D01*
X11346900Y460754147D01*
X11501772Y460818297D01*
X11666184Y460851000D01*
X11833816Y460851000D01*
X11998228Y460818297D01*
G37*
G36*
X9498228Y460818297D02*
G01*
X9653100Y460754147D01*
X9792481Y460661015D01*
X9911015Y460542481D01*
X10004147Y460403100D01*
X10068297Y460248228D01*
X10101000Y460083816D01*
X10101000Y459916184D01*
X10068297Y459751772D01*
X10004147Y459596900D01*
X9911015Y459457519D01*
X9792481Y459338985D01*
X9653100Y459245853D01*
X9498228Y459181703D01*
X9333816Y459149000D01*
X9166184Y459149000D01*
X9001772Y459181703D01*
X8846900Y459245853D01*
X8707519Y459338985D01*
X8588985Y459457519D01*
X8495853Y459596900D01*
X8431703Y459751772D01*
X8399000Y459916184D01*
X8399000Y460083816D01*
X8431703Y460248228D01*
X8495853Y460403100D01*
X8588985Y460542481D01*
X8707519Y460661015D01*
X8846900Y460754147D01*
X9001772Y460818297D01*
X9166184Y460851000D01*
X9333816Y460851000D01*
X9498228Y460818297D01*
G37*
G36*
X52236042Y461463746D02*
G01*
X52318257Y461447393D01*
X52382414Y461420818D01*
X52473146Y461383236D01*
X52612544Y461290093D01*
X52731093Y461171544D01*
X52824236Y461032146D01*
X52888393Y460877256D01*
X52921100Y460712827D01*
X52921100Y460545173D01*
X52888393Y460380744D01*
X52824236Y460225854D01*
X52731093Y460086456D01*
X52612544Y459967907D01*
X52473146Y459874764D01*
X52382414Y459837182D01*
X52318257Y459810607D01*
X52236041Y459794253D01*
X52153827Y459777900D01*
X51986173Y459777900D01*
X51903959Y459794253D01*
X51821743Y459810607D01*
X51757586Y459837182D01*
X51666854Y459874764D01*
X51527456Y459967907D01*
X51408907Y460086456D01*
X51315764Y460225854D01*
X51251607Y460380744D01*
X51218900Y460545173D01*
X51218900Y460712827D01*
X51251607Y460877256D01*
X51315764Y461032146D01*
X51408907Y461171544D01*
X51527456Y461290093D01*
X51666854Y461383236D01*
X51757586Y461420818D01*
X51821743Y461447393D01*
X51903958Y461463746D01*
X51986173Y461480100D01*
X52153827Y461480100D01*
X52236042Y461463746D01*
G37*
G36*
X42076042Y461463746D02*
G01*
X42158257Y461447393D01*
X42222414Y461420818D01*
X42313146Y461383236D01*
X42452544Y461290093D01*
X42571093Y461171544D01*
X42664236Y461032146D01*
X42728393Y460877256D01*
X42761100Y460712827D01*
X42761100Y460545173D01*
X42728393Y460380744D01*
X42664236Y460225854D01*
X42571093Y460086456D01*
X42452544Y459967907D01*
X42313146Y459874764D01*
X42222414Y459837182D01*
X42158257Y459810607D01*
X42076041Y459794253D01*
X41993827Y459777900D01*
X41826173Y459777900D01*
X41743959Y459794253D01*
X41661743Y459810607D01*
X41597586Y459837182D01*
X41506854Y459874764D01*
X41367456Y459967907D01*
X41248907Y460086456D01*
X41155764Y460225854D01*
X41091607Y460380744D01*
X41058900Y460545173D01*
X41058900Y460712827D01*
X41091607Y460877256D01*
X41155764Y461032146D01*
X41248907Y461171544D01*
X41367456Y461290093D01*
X41506854Y461383236D01*
X41597586Y461420818D01*
X41661743Y461447393D01*
X41743958Y461463746D01*
X41826173Y461480100D01*
X41993827Y461480100D01*
X42076042Y461463746D01*
G37*
G36*
X47156042Y461463746D02*
G01*
X47238257Y461447393D01*
X47302414Y461420818D01*
X47393146Y461383236D01*
X47532544Y461290093D01*
X47651093Y461171544D01*
X47744236Y461032146D01*
X47808393Y460877256D01*
X47841100Y460712827D01*
X47841100Y460545173D01*
X47808393Y460380744D01*
X47744236Y460225854D01*
X47651093Y460086456D01*
X47532544Y459967907D01*
X47393146Y459874764D01*
X47302414Y459837182D01*
X47238257Y459810607D01*
X47156041Y459794253D01*
X47073827Y459777900D01*
X46906173Y459777900D01*
X46823959Y459794253D01*
X46741743Y459810607D01*
X46677586Y459837182D01*
X46586854Y459874764D01*
X46447456Y459967907D01*
X46328907Y460086456D01*
X46235764Y460225854D01*
X46171607Y460380744D01*
X46138900Y460545173D01*
X46138900Y460712827D01*
X46171607Y460877256D01*
X46235764Y461032146D01*
X46328907Y461171544D01*
X46447456Y461290093D01*
X46586854Y461383236D01*
X46677586Y461420818D01*
X46741743Y461447393D01*
X46823958Y461463746D01*
X46906173Y461480100D01*
X47073827Y461480100D01*
X47156042Y461463746D01*
G37*
G36*
X54776042Y461463746D02*
G01*
X54858257Y461447393D01*
X54922414Y461420818D01*
X55013146Y461383236D01*
X55152544Y461290093D01*
X55271093Y461171544D01*
X55364236Y461032146D01*
X55428393Y460877256D01*
X55461100Y460712827D01*
X55461100Y460545173D01*
X55428393Y460380744D01*
X55364236Y460225854D01*
X55271093Y460086456D01*
X55152544Y459967907D01*
X55013146Y459874764D01*
X54922414Y459837182D01*
X54858257Y459810607D01*
X54776041Y459794253D01*
X54693827Y459777900D01*
X54526173Y459777900D01*
X54443959Y459794253D01*
X54361743Y459810607D01*
X54297586Y459837182D01*
X54206854Y459874764D01*
X54067456Y459967907D01*
X53948907Y460086456D01*
X53855764Y460225854D01*
X53791607Y460380744D01*
X53758900Y460545173D01*
X53758900Y460712827D01*
X53791607Y460877256D01*
X53855764Y461032146D01*
X53948907Y461171544D01*
X54067456Y461290093D01*
X54206854Y461383236D01*
X54297586Y461420818D01*
X54361743Y461447393D01*
X54443958Y461463746D01*
X54526173Y461480100D01*
X54693827Y461480100D01*
X54776042Y461463746D01*
G37*
G36*
X44616042Y461463746D02*
G01*
X44698257Y461447393D01*
X44762414Y461420818D01*
X44853146Y461383236D01*
X44992544Y461290093D01*
X45111093Y461171544D01*
X45204236Y461032146D01*
X45268393Y460877256D01*
X45301100Y460712827D01*
X45301100Y460545173D01*
X45268393Y460380744D01*
X45204236Y460225854D01*
X45111093Y460086456D01*
X44992544Y459967907D01*
X44853146Y459874764D01*
X44762414Y459837182D01*
X44698257Y459810607D01*
X44616041Y459794253D01*
X44533827Y459777900D01*
X44366173Y459777900D01*
X44283959Y459794253D01*
X44201743Y459810607D01*
X44137586Y459837182D01*
X44046854Y459874764D01*
X43907456Y459967907D01*
X43788907Y460086456D01*
X43695764Y460225854D01*
X43631607Y460380744D01*
X43598900Y460545173D01*
X43598900Y460712827D01*
X43631607Y460877256D01*
X43695764Y461032146D01*
X43788907Y461171544D01*
X43907456Y461290093D01*
X44046854Y461383236D01*
X44137586Y461420818D01*
X44201743Y461447393D01*
X44283958Y461463746D01*
X44366173Y461480100D01*
X44533827Y461480100D01*
X44616042Y461463746D01*
G37*
G36*
X49696042Y461463746D02*
G01*
X49778257Y461447393D01*
X49842414Y461420818D01*
X49933146Y461383236D01*
X50072544Y461290093D01*
X50191093Y461171544D01*
X50284236Y461032146D01*
X50348393Y460877256D01*
X50381100Y460712827D01*
X50381100Y460545173D01*
X50348393Y460380744D01*
X50284236Y460225854D01*
X50191093Y460086456D01*
X50072544Y459967907D01*
X49933146Y459874764D01*
X49842414Y459837182D01*
X49778257Y459810607D01*
X49696041Y459794253D01*
X49613827Y459777900D01*
X49446173Y459777900D01*
X49363959Y459794253D01*
X49281743Y459810607D01*
X49217586Y459837182D01*
X49126854Y459874764D01*
X48987456Y459967907D01*
X48868907Y460086456D01*
X48775764Y460225854D01*
X48711607Y460380744D01*
X48678900Y460545173D01*
X48678900Y460712827D01*
X48711607Y460877256D01*
X48775764Y461032146D01*
X48868907Y461171544D01*
X48987456Y461290093D01*
X49126854Y461383236D01*
X49217586Y461420818D01*
X49281743Y461447393D01*
X49363958Y461463746D01*
X49446173Y461480100D01*
X49613827Y461480100D01*
X49696042Y461463746D01*
G37*
G36*
X57316042Y461463746D02*
G01*
X57398257Y461447393D01*
X57462414Y461420818D01*
X57553146Y461383236D01*
X57692544Y461290093D01*
X57811093Y461171544D01*
X57904236Y461032146D01*
X57968393Y460877256D01*
X58001100Y460712827D01*
X58001100Y460545173D01*
X57968393Y460380744D01*
X57904236Y460225854D01*
X57811093Y460086456D01*
X57692544Y459967907D01*
X57553146Y459874764D01*
X57462414Y459837182D01*
X57398257Y459810607D01*
X57316041Y459794253D01*
X57233827Y459777900D01*
X57066173Y459777900D01*
X56983959Y459794253D01*
X56901743Y459810607D01*
X56837586Y459837182D01*
X56746854Y459874764D01*
X56607456Y459967907D01*
X56488907Y460086456D01*
X56395764Y460225854D01*
X56331607Y460380744D01*
X56298900Y460545173D01*
X56298900Y460712827D01*
X56331607Y460877256D01*
X56395764Y461032146D01*
X56488907Y461171544D01*
X56607456Y461290093D01*
X56746854Y461383236D01*
X56837586Y461420818D01*
X56901743Y461447393D01*
X56983958Y461463746D01*
X57066173Y461480100D01*
X57233827Y461480100D01*
X57316042Y461463746D01*
G37*
G36*
X31109228Y464495297D02*
G01*
X31264100Y464431147D01*
X31403481Y464338015D01*
X31522015Y464219481D01*
X31615147Y464080100D01*
X31679297Y463925228D01*
X31712000Y463760816D01*
X31712000Y463593184D01*
X31679297Y463428772D01*
X31615147Y463273900D01*
X31522015Y463134519D01*
X31403481Y463015985D01*
X31264100Y462922853D01*
X31109228Y462858703D01*
X30944816Y462826000D01*
X30777184Y462826000D01*
X30612772Y462858703D01*
X30457900Y462922853D01*
X30318519Y463015985D01*
X30199985Y463134519D01*
X30106853Y463273900D01*
X30042703Y463428772D01*
X30010000Y463593184D01*
X30010000Y463760816D01*
X30042703Y463925228D01*
X30106853Y464080100D01*
X30199985Y464219481D01*
X30318519Y464338015D01*
X30457900Y464431147D01*
X30612772Y464495297D01*
X30777184Y464528000D01*
X30944816Y464528000D01*
X31109228Y464495297D01*
G37*
G36*
X28609228Y464495297D02*
G01*
X28764100Y464431147D01*
X28903481Y464338015D01*
X29022015Y464219481D01*
X29115147Y464080100D01*
X29179297Y463925228D01*
X29212000Y463760816D01*
X29212000Y463593184D01*
X29179297Y463428772D01*
X29115147Y463273900D01*
X29022015Y463134519D01*
X28903481Y463015985D01*
X28764100Y462922853D01*
X28609228Y462858703D01*
X28444816Y462826000D01*
X28277184Y462826000D01*
X28112772Y462858703D01*
X27957900Y462922853D01*
X27818519Y463015985D01*
X27699985Y463134519D01*
X27606853Y463273900D01*
X27542703Y463428772D01*
X27510000Y463593184D01*
X27510000Y463760816D01*
X27542703Y463925228D01*
X27606853Y464080100D01*
X27699985Y464219481D01*
X27818519Y464338015D01*
X27957900Y464431147D01*
X28112772Y464495297D01*
X28277184Y464528000D01*
X28444816Y464528000D01*
X28609228Y464495297D01*
G37*
G36*
X17946042Y479497746D02*
G01*
X18028257Y479481393D01*
X18092414Y479454818D01*
X18183146Y479417236D01*
X18322544Y479324093D01*
X18441093Y479205544D01*
X18534236Y479066146D01*
X18598393Y478911256D01*
X18631100Y478746827D01*
X18631100Y478579173D01*
X18598393Y478414744D01*
X18534236Y478259854D01*
X18441093Y478120456D01*
X18322544Y478001907D01*
X18183146Y477908764D01*
X18092414Y477871182D01*
X18028257Y477844607D01*
X17946042Y477828254D01*
X17863827Y477811900D01*
X17696173Y477811900D01*
X17613958Y477828254D01*
X17531743Y477844607D01*
X17467586Y477871182D01*
X17376854Y477908764D01*
X17237456Y478001907D01*
X17118907Y478120456D01*
X17025764Y478259854D01*
X16961607Y478414744D01*
X16928900Y478579173D01*
X16928900Y478746827D01*
X16961607Y478911256D01*
X17025764Y479066146D01*
X17118907Y479205544D01*
X17237456Y479324093D01*
X17376854Y479417236D01*
X17467586Y479454818D01*
X17531743Y479481393D01*
X17613958Y479497746D01*
X17696173Y479514100D01*
X17863827Y479514100D01*
X17946042Y479497746D01*
G37*
G36*
X10326042Y479497746D02*
G01*
X10408257Y479481393D01*
X10472414Y479454818D01*
X10563146Y479417236D01*
X10702544Y479324093D01*
X10821093Y479205544D01*
X10914236Y479066146D01*
X10978393Y478911256D01*
X11011100Y478746827D01*
X11011100Y478579173D01*
X10978393Y478414744D01*
X10914236Y478259854D01*
X10821093Y478120456D01*
X10702544Y478001907D01*
X10563146Y477908764D01*
X10472414Y477871182D01*
X10408257Y477844607D01*
X10326042Y477828254D01*
X10243827Y477811900D01*
X10076173Y477811900D01*
X9993958Y477828254D01*
X9911743Y477844607D01*
X9847586Y477871182D01*
X9756854Y477908764D01*
X9617456Y478001907D01*
X9498907Y478120456D01*
X9405764Y478259854D01*
X9341607Y478414744D01*
X9308900Y478579173D01*
X9308900Y478746827D01*
X9341607Y478911256D01*
X9405764Y479066146D01*
X9498907Y479205544D01*
X9617456Y479324093D01*
X9756854Y479417236D01*
X9847586Y479454818D01*
X9911743Y479481393D01*
X9993958Y479497746D01*
X10076173Y479514100D01*
X10243827Y479514100D01*
X10326042Y479497746D01*
G37*
G36*
X12866042Y479497746D02*
G01*
X12948257Y479481393D01*
X13012414Y479454818D01*
X13103146Y479417236D01*
X13242544Y479324093D01*
X13361093Y479205544D01*
X13454236Y479066146D01*
X13518393Y478911256D01*
X13551100Y478746827D01*
X13551100Y478579173D01*
X13518393Y478414744D01*
X13454236Y478259854D01*
X13361093Y478120456D01*
X13242544Y478001907D01*
X13103146Y477908764D01*
X13012414Y477871182D01*
X12948257Y477844607D01*
X12866042Y477828254D01*
X12783827Y477811900D01*
X12616173Y477811900D01*
X12533958Y477828254D01*
X12451743Y477844607D01*
X12387586Y477871182D01*
X12296854Y477908764D01*
X12157456Y478001907D01*
X12038907Y478120456D01*
X11945764Y478259854D01*
X11881607Y478414744D01*
X11848900Y478579173D01*
X11848900Y478746827D01*
X11881607Y478911256D01*
X11945764Y479066146D01*
X12038907Y479205544D01*
X12157456Y479324093D01*
X12296854Y479417236D01*
X12387586Y479454818D01*
X12451743Y479481393D01*
X12533958Y479497746D01*
X12616173Y479514100D01*
X12783827Y479514100D01*
X12866042Y479497746D01*
G37*
G36*
X15406042Y479497746D02*
G01*
X15488257Y479481393D01*
X15552414Y479454818D01*
X15643146Y479417236D01*
X15782544Y479324093D01*
X15901093Y479205544D01*
X15994236Y479066146D01*
X16058393Y478911256D01*
X16091100Y478746827D01*
X16091100Y478579173D01*
X16058393Y478414744D01*
X15994236Y478259854D01*
X15901093Y478120456D01*
X15782544Y478001907D01*
X15643146Y477908764D01*
X15552414Y477871182D01*
X15488257Y477844607D01*
X15406042Y477828254D01*
X15323827Y477811900D01*
X15156173Y477811900D01*
X15073958Y477828254D01*
X14991743Y477844607D01*
X14927586Y477871182D01*
X14836854Y477908764D01*
X14697456Y478001907D01*
X14578907Y478120456D01*
X14485764Y478259854D01*
X14421607Y478414744D01*
X14388900Y478579173D01*
X14388900Y478746827D01*
X14421607Y478911256D01*
X14485764Y479066146D01*
X14578907Y479205544D01*
X14697456Y479324093D01*
X14836854Y479417236D01*
X14927586Y479454818D01*
X14991743Y479481393D01*
X15073958Y479497746D01*
X15156173Y479514100D01*
X15323827Y479514100D01*
X15406042Y479497746D01*
G37*
G36*
X58048228Y486418297D02*
G01*
X58203100Y486354147D01*
X58342481Y486261015D01*
X58461015Y486142481D01*
X58554147Y486003100D01*
X58618297Y485848228D01*
X58651000Y485683816D01*
X58651000Y485516184D01*
X58618297Y485351772D01*
X58554147Y485196900D01*
X58461015Y485057519D01*
X58342481Y484938985D01*
X58203100Y484845853D01*
X58048228Y484781703D01*
X57883816Y484749000D01*
X57716184Y484749000D01*
X57551772Y484781703D01*
X57396900Y484845853D01*
X57257519Y484938985D01*
X57138985Y485057519D01*
X57045853Y485196900D01*
X56981703Y485351772D01*
X56949000Y485516184D01*
X56949000Y485683816D01*
X56981703Y485848228D01*
X57045853Y486003100D01*
X57138985Y486142481D01*
X57257519Y486261015D01*
X57396900Y486354147D01*
X57551772Y486418297D01*
X57716184Y486451000D01*
X57883816Y486451000D01*
X58048228Y486418297D01*
G37*
G36*
X60548228Y486418297D02*
G01*
X60703100Y486354147D01*
X60842481Y486261015D01*
X60961015Y486142481D01*
X61054147Y486003100D01*
X61118297Y485848228D01*
X61151000Y485683816D01*
X61151000Y485516184D01*
X61118297Y485351772D01*
X61054147Y485196900D01*
X60961015Y485057519D01*
X60842481Y484938985D01*
X60703100Y484845853D01*
X60548228Y484781703D01*
X60383816Y484749000D01*
X60216184Y484749000D01*
X60051772Y484781703D01*
X59896900Y484845853D01*
X59757519Y484938985D01*
X59638985Y485057519D01*
X59545853Y485196900D01*
X59481703Y485351772D01*
X59449000Y485516184D01*
X59449000Y485683816D01*
X59481703Y485848228D01*
X59545853Y486003100D01*
X59638985Y486142481D01*
X59757519Y486261015D01*
X59896900Y486354147D01*
X60051772Y486418297D01*
X60216184Y486451000D01*
X60383816Y486451000D01*
X60548228Y486418297D01*
G37*
G36*
X22786042Y489959746D02*
G01*
X22868257Y489943393D01*
X22932414Y489916818D01*
X23023146Y489879236D01*
X23162544Y489786093D01*
X23281093Y489667544D01*
X23374236Y489528146D01*
X23438393Y489373256D01*
X23471100Y489208827D01*
X23471100Y489041173D01*
X23438393Y488876744D01*
X23374236Y488721854D01*
X23281093Y488582456D01*
X23162544Y488463907D01*
X23023146Y488370764D01*
X22932414Y488333182D01*
X22868257Y488306607D01*
X22786041Y488290253D01*
X22703827Y488273900D01*
X22536173Y488273900D01*
X22453959Y488290253D01*
X22371743Y488306607D01*
X22307586Y488333182D01*
X22216854Y488370764D01*
X22077456Y488463907D01*
X21958907Y488582456D01*
X21865764Y488721854D01*
X21801607Y488876744D01*
X21768900Y489041173D01*
X21768900Y489208827D01*
X21801607Y489373256D01*
X21865764Y489528146D01*
X21958907Y489667544D01*
X22077456Y489786093D01*
X22216854Y489879236D01*
X22307586Y489916818D01*
X22371743Y489943393D01*
X22453958Y489959746D01*
X22536173Y489976100D01*
X22703827Y489976100D01*
X22786042Y489959746D01*
G37*
G36*
X7546042Y489959746D02*
G01*
X7628257Y489943393D01*
X7692414Y489916818D01*
X7783146Y489879236D01*
X7922544Y489786093D01*
X8041093Y489667544D01*
X8134236Y489528146D01*
X8198393Y489373256D01*
X8231100Y489208827D01*
X8231100Y489041173D01*
X8198393Y488876744D01*
X8134236Y488721854D01*
X8041093Y488582456D01*
X7922544Y488463907D01*
X7783146Y488370764D01*
X7692414Y488333182D01*
X7628257Y488306607D01*
X7546041Y488290253D01*
X7463827Y488273900D01*
X7296173Y488273900D01*
X7213959Y488290253D01*
X7131743Y488306607D01*
X7067586Y488333182D01*
X6976854Y488370764D01*
X6837456Y488463907D01*
X6718907Y488582456D01*
X6625764Y488721854D01*
X6561607Y488876744D01*
X6528900Y489041173D01*
X6528900Y489208827D01*
X6561607Y489373256D01*
X6625764Y489528146D01*
X6718907Y489667544D01*
X6837456Y489786093D01*
X6976854Y489879236D01*
X7067586Y489916818D01*
X7131743Y489943393D01*
X7213958Y489959746D01*
X7296173Y489976100D01*
X7463827Y489976100D01*
X7546042Y489959746D01*
G37*
G36*
X-20135878Y497773386D02*
G01*
X-19479446Y497501483D01*
X-19283414Y497370498D01*
X-18888671Y497106740D01*
X-18386260Y496604329D01*
X-18122502Y496209586D01*
X-17991517Y496013554D01*
X-17719614Y495357122D01*
X-17581000Y494660260D01*
X-17581000Y493949740D01*
X-17719614Y493252878D01*
X-17991517Y492596446D01*
X-18015505Y492560546D01*
X-18386260Y492005671D01*
X-18888671Y491503260D01*
X-19249961Y491261854D01*
X-19479446Y491108517D01*
X-20135878Y490836614D01*
X-20832740Y490698000D01*
X-21543260Y490698000D01*
X-22240122Y490836614D01*
X-22896554Y491108517D01*
X-23126039Y491261854D01*
X-23487329Y491503260D01*
X-23989740Y492005671D01*
X-24360495Y492560546D01*
X-24384483Y492596446D01*
X-24656386Y493252878D01*
X-24795000Y493949740D01*
X-24795000Y494660260D01*
X-24656386Y495357122D01*
X-24384483Y496013554D01*
X-24253498Y496209586D01*
X-23989740Y496604329D01*
X-23487329Y497106740D01*
X-23092586Y497370498D01*
X-22896554Y497501483D01*
X-22240122Y497773386D01*
X-21543260Y497912000D01*
X-20832740Y497912000D01*
X-20135878Y497773386D01*
G37*
G36*
X-37611078Y497773386D02*
G01*
X-36954646Y497501483D01*
X-36758614Y497370498D01*
X-36363871Y497106740D01*
X-35861460Y496604329D01*
X-35597702Y496209586D01*
X-35466717Y496013554D01*
X-35194814Y495357122D01*
X-35056200Y494660260D01*
X-35056200Y493949740D01*
X-35194814Y493252878D01*
X-35466717Y492596446D01*
X-35490705Y492560546D01*
X-35861460Y492005671D01*
X-36363871Y491503260D01*
X-36725161Y491261854D01*
X-36954646Y491108517D01*
X-37611078Y490836614D01*
X-38307940Y490698000D01*
X-39018460Y490698000D01*
X-39715322Y490836614D01*
X-40371754Y491108517D01*
X-40601239Y491261854D01*
X-40962529Y491503260D01*
X-41464940Y492005671D01*
X-41835695Y492560546D01*
X-41859683Y492596446D01*
X-42131586Y493252878D01*
X-42270200Y493949740D01*
X-42270200Y494660260D01*
X-42131586Y495357122D01*
X-41859683Y496013554D01*
X-41728698Y496209586D01*
X-41464940Y496604329D01*
X-40962529Y497106740D01*
X-40567786Y497370498D01*
X-40371754Y497501483D01*
X-39715322Y497773386D01*
X-39018460Y497912000D01*
X-38307940Y497912000D01*
X-37611078Y497773386D01*
G37*
G36*
X7546041Y492499747D02*
G01*
X7628257Y492483393D01*
X7692414Y492456818D01*
X7783146Y492419236D01*
X7922544Y492326093D01*
X8041093Y492207544D01*
X8134236Y492068146D01*
X8198393Y491913256D01*
X8231100Y491748827D01*
X8231100Y491581173D01*
X8198393Y491416744D01*
X8134236Y491261854D01*
X8041093Y491122456D01*
X7922544Y491003907D01*
X7783146Y490910764D01*
X7692414Y490873182D01*
X7628257Y490846607D01*
X7578023Y490836615D01*
X7463827Y490813900D01*
X7296173Y490813900D01*
X7181977Y490836615D01*
X7131743Y490846607D01*
X7067586Y490873182D01*
X6976854Y490910764D01*
X6837456Y491003907D01*
X6718907Y491122456D01*
X6625764Y491261854D01*
X6561607Y491416744D01*
X6528900Y491581173D01*
X6528900Y491748827D01*
X6561607Y491913256D01*
X6625764Y492068146D01*
X6718907Y492207544D01*
X6837456Y492326093D01*
X6976854Y492419236D01*
X7067586Y492456818D01*
X7131743Y492483393D01*
X7213959Y492499747D01*
X7296173Y492516100D01*
X7463827Y492516100D01*
X7546041Y492499747D01*
G37*
G36*
X22786041Y492499747D02*
G01*
X22868257Y492483393D01*
X22932414Y492456818D01*
X23023146Y492419236D01*
X23162544Y492326093D01*
X23281093Y492207544D01*
X23374236Y492068146D01*
X23438393Y491913256D01*
X23471100Y491748827D01*
X23471100Y491581173D01*
X23438393Y491416744D01*
X23374236Y491261854D01*
X23281093Y491122456D01*
X23162544Y491003907D01*
X23023146Y490910764D01*
X22932414Y490873182D01*
X22868257Y490846607D01*
X22818023Y490836615D01*
X22703827Y490813900D01*
X22536173Y490813900D01*
X22421977Y490836615D01*
X22371743Y490846607D01*
X22307586Y490873182D01*
X22216854Y490910764D01*
X22077456Y491003907D01*
X21958907Y491122456D01*
X21865764Y491261854D01*
X21801607Y491416744D01*
X21768900Y491581173D01*
X21768900Y491748827D01*
X21801607Y491913256D01*
X21865764Y492068146D01*
X21958907Y492207544D01*
X22077456Y492326093D01*
X22216854Y492419236D01*
X22307586Y492456818D01*
X22371743Y492483393D01*
X22453959Y492499747D01*
X22536173Y492516100D01*
X22703827Y492516100D01*
X22786041Y492499747D01*
G37*
G36*
X58120345Y493296558D02*
G01*
X58210548Y493287674D01*
X58384157Y493235010D01*
X58544156Y493149489D01*
X58587729Y493113729D01*
X58684397Y493034397D01*
X58763729Y492937729D01*
X58799489Y492894156D01*
X58885010Y492734157D01*
X58937674Y492560548D01*
X58955456Y492380000D01*
X58937674Y492199452D01*
X58885010Y492025843D01*
X58799489Y491865844D01*
X58763729Y491822271D01*
X58684397Y491725603D01*
X58587729Y491646271D01*
X58544156Y491610511D01*
X58384157Y491524990D01*
X58210548Y491472326D01*
X58120345Y491463442D01*
X58075245Y491459000D01*
X57524755Y491459000D01*
X57479655Y491463442D01*
X57389452Y491472326D01*
X57215843Y491524990D01*
X57055844Y491610511D01*
X57012271Y491646271D01*
X56915603Y491725603D01*
X56836271Y491822271D01*
X56800511Y491865844D01*
X56714990Y492025843D01*
X56662326Y492199452D01*
X56644544Y492380000D01*
X56662326Y492560548D01*
X56714990Y492734157D01*
X56800511Y492894156D01*
X56836271Y492937729D01*
X56915603Y493034397D01*
X57012271Y493113729D01*
X57055844Y493149489D01*
X57215843Y493235010D01*
X57389452Y493287674D01*
X57479655Y493296558D01*
X57524755Y493301000D01*
X58075245Y493301000D01*
X58120345Y493296558D01*
G37*
G36*
X7546041Y495039747D02*
G01*
X7628257Y495023393D01*
X7692414Y494996818D01*
X7783146Y494959236D01*
X7922544Y494866093D01*
X8041093Y494747544D01*
X8134236Y494608146D01*
X8151758Y494565843D01*
X8198393Y494453257D01*
X8231100Y494288826D01*
X8231100Y494121174D01*
X8198393Y493956743D01*
X8195492Y493949740D01*
X8134236Y493801854D01*
X8041093Y493662456D01*
X7922544Y493543907D01*
X7783146Y493450764D01*
X7692414Y493413182D01*
X7628257Y493386607D01*
X7546042Y493370254D01*
X7463827Y493353900D01*
X7296173Y493353900D01*
X7213958Y493370254D01*
X7131743Y493386607D01*
X7067586Y493413182D01*
X6976854Y493450764D01*
X6837456Y493543907D01*
X6718907Y493662456D01*
X6625764Y493801854D01*
X6564508Y493949740D01*
X6561607Y493956743D01*
X6528900Y494121174D01*
X6528900Y494288826D01*
X6561607Y494453257D01*
X6608242Y494565843D01*
X6625764Y494608146D01*
X6718907Y494747544D01*
X6837456Y494866093D01*
X6976854Y494959236D01*
X7067586Y494996818D01*
X7131743Y495023393D01*
X7213959Y495039747D01*
X7296173Y495056100D01*
X7463827Y495056100D01*
X7546041Y495039747D01*
G37*
G36*
X22786041Y495039747D02*
G01*
X22868257Y495023393D01*
X22932414Y494996818D01*
X23023146Y494959236D01*
X23162544Y494866093D01*
X23281093Y494747544D01*
X23374236Y494608146D01*
X23391758Y494565843D01*
X23438393Y494453257D01*
X23471100Y494288826D01*
X23471100Y494121174D01*
X23438393Y493956743D01*
X23435492Y493949740D01*
X23374236Y493801854D01*
X23281093Y493662456D01*
X23162544Y493543907D01*
X23023146Y493450764D01*
X22932414Y493413182D01*
X22868257Y493386607D01*
X22786042Y493370254D01*
X22703827Y493353900D01*
X22536173Y493353900D01*
X22453958Y493370254D01*
X22371743Y493386607D01*
X22307586Y493413182D01*
X22216854Y493450764D01*
X22077456Y493543907D01*
X21958907Y493662456D01*
X21865764Y493801854D01*
X21804508Y493949740D01*
X21801607Y493956743D01*
X21768900Y494121174D01*
X21768900Y494288826D01*
X21801607Y494453257D01*
X21848242Y494565843D01*
X21865764Y494608146D01*
X21958907Y494747544D01*
X22077456Y494866093D01*
X22216854Y494959236D01*
X22307586Y494996818D01*
X22371743Y495023393D01*
X22453959Y495039747D01*
X22536173Y495056100D01*
X22703827Y495056100D01*
X22786041Y495039747D01*
G37*
G36*
X58120345Y495836558D02*
G01*
X58210548Y495827674D01*
X58384157Y495775010D01*
X58544156Y495689489D01*
X58587729Y495653729D01*
X58684397Y495574397D01*
X58763729Y495477729D01*
X58799489Y495434156D01*
X58885010Y495274157D01*
X58937674Y495100548D01*
X58955456Y494920000D01*
X58937674Y494739452D01*
X58885010Y494565843D01*
X58799489Y494405844D01*
X58763729Y494362271D01*
X58684397Y494265603D01*
X58587729Y494186271D01*
X58544156Y494150511D01*
X58384157Y494064990D01*
X58210548Y494012326D01*
X58120345Y494003442D01*
X58075245Y493999000D01*
X57524755Y493999000D01*
X57479655Y494003442D01*
X57389452Y494012326D01*
X57215843Y494064990D01*
X57055844Y494150511D01*
X57012271Y494186271D01*
X56915603Y494265603D01*
X56836271Y494362271D01*
X56800511Y494405844D01*
X56714990Y494565843D01*
X56662326Y494739452D01*
X56644544Y494920000D01*
X56662326Y495100548D01*
X56714990Y495274157D01*
X56800511Y495434156D01*
X56836271Y495477729D01*
X56915603Y495574397D01*
X57012271Y495653729D01*
X57055844Y495689489D01*
X57215843Y495775010D01*
X57389452Y495827674D01*
X57479655Y495836558D01*
X57524755Y495841000D01*
X58075245Y495841000D01*
X58120345Y495836558D01*
G37*
G36*
X22786041Y497579747D02*
G01*
X22868257Y497563393D01*
X22932414Y497536818D01*
X23023146Y497499236D01*
X23162544Y497406093D01*
X23281093Y497287544D01*
X23374236Y497148146D01*
X23438393Y496993256D01*
X23471100Y496828827D01*
X23471100Y496661173D01*
X23438393Y496496744D01*
X23374236Y496341854D01*
X23281093Y496202456D01*
X23162544Y496083907D01*
X23023146Y495990764D01*
X22932414Y495953182D01*
X22868257Y495926607D01*
X22786042Y495910254D01*
X22703827Y495893900D01*
X22536173Y495893900D01*
X22453958Y495910254D01*
X22371743Y495926607D01*
X22307586Y495953182D01*
X22216854Y495990764D01*
X22077456Y496083907D01*
X21958907Y496202456D01*
X21865764Y496341854D01*
X21801607Y496496744D01*
X21768900Y496661173D01*
X21768900Y496828827D01*
X21801607Y496993256D01*
X21865764Y497148146D01*
X21958907Y497287544D01*
X22077456Y497406093D01*
X22216854Y497499236D01*
X22307586Y497536818D01*
X22371743Y497563393D01*
X22453959Y497579747D01*
X22536173Y497596100D01*
X22703827Y497596100D01*
X22786041Y497579747D01*
G37*
G36*
X7546041Y497579747D02*
G01*
X7628257Y497563393D01*
X7692414Y497536818D01*
X7783146Y497499236D01*
X7922544Y497406093D01*
X8041093Y497287544D01*
X8134236Y497148146D01*
X8198393Y496993256D01*
X8231100Y496828827D01*
X8231100Y496661173D01*
X8198393Y496496744D01*
X8134236Y496341854D01*
X8041093Y496202456D01*
X7922544Y496083907D01*
X7783146Y495990764D01*
X7692414Y495953182D01*
X7628257Y495926607D01*
X7546042Y495910254D01*
X7463827Y495893900D01*
X7296173Y495893900D01*
X7213958Y495910254D01*
X7131743Y495926607D01*
X7067586Y495953182D01*
X6976854Y495990764D01*
X6837456Y496083907D01*
X6718907Y496202456D01*
X6625764Y496341854D01*
X6561607Y496496744D01*
X6528900Y496661173D01*
X6528900Y496828827D01*
X6561607Y496993256D01*
X6625764Y497148146D01*
X6718907Y497287544D01*
X6837456Y497406093D01*
X6976854Y497499236D01*
X7067586Y497536818D01*
X7131743Y497563393D01*
X7213959Y497579747D01*
X7296173Y497596100D01*
X7463827Y497596100D01*
X7546041Y497579747D01*
G37*
G36*
X58120345Y498376558D02*
G01*
X58210548Y498367674D01*
X58384157Y498315010D01*
X58544156Y498229489D01*
X58587729Y498193729D01*
X58684397Y498114397D01*
X58763729Y498017729D01*
X58799489Y497974156D01*
X58885010Y497814157D01*
X58937674Y497640548D01*
X58955456Y497460000D01*
X58937674Y497279452D01*
X58885010Y497105843D01*
X58799489Y496945844D01*
X58763729Y496902271D01*
X58684397Y496805603D01*
X58587729Y496726271D01*
X58544156Y496690511D01*
X58384157Y496604990D01*
X58210548Y496552326D01*
X58120345Y496543442D01*
X58075245Y496539000D01*
X57524755Y496539000D01*
X57479655Y496543442D01*
X57389452Y496552326D01*
X57215843Y496604990D01*
X57055844Y496690511D01*
X57012271Y496726271D01*
X56915603Y496805603D01*
X56836271Y496902271D01*
X56800511Y496945844D01*
X56714990Y497105843D01*
X56662326Y497279452D01*
X56644544Y497460000D01*
X56662326Y497640548D01*
X56714990Y497814157D01*
X56800511Y497974156D01*
X56836271Y498017729D01*
X56915603Y498114397D01*
X57012271Y498193729D01*
X57055844Y498229489D01*
X57215843Y498315010D01*
X57389452Y498367674D01*
X57479655Y498376558D01*
X57524755Y498381000D01*
X58075245Y498381000D01*
X58120345Y498376558D01*
G37*
G36*
X7546041Y500119747D02*
G01*
X7628257Y500103393D01*
X7692414Y500076818D01*
X7783146Y500039236D01*
X7922544Y499946093D01*
X8041093Y499827544D01*
X8134236Y499688146D01*
X8171818Y499597414D01*
X8198393Y499533257D01*
X8214747Y499451041D01*
X8231100Y499368827D01*
X8231100Y499201173D01*
X8198393Y499036744D01*
X8134236Y498881854D01*
X8041093Y498742456D01*
X7922544Y498623907D01*
X7783146Y498530764D01*
X7692414Y498493182D01*
X7628257Y498466607D01*
X7546041Y498450253D01*
X7463827Y498433900D01*
X7296173Y498433900D01*
X7213959Y498450253D01*
X7131743Y498466607D01*
X7067586Y498493182D01*
X6976854Y498530764D01*
X6837456Y498623907D01*
X6718907Y498742456D01*
X6625764Y498881854D01*
X6561607Y499036744D01*
X6528900Y499201173D01*
X6528900Y499368827D01*
X6545253Y499451041D01*
X6561607Y499533257D01*
X6588182Y499597414D01*
X6625764Y499688146D01*
X6718907Y499827544D01*
X6837456Y499946093D01*
X6976854Y500039236D01*
X7067586Y500076818D01*
X7131743Y500103393D01*
X7213959Y500119747D01*
X7296173Y500136100D01*
X7463827Y500136100D01*
X7546041Y500119747D01*
G37*
G36*
X22786041Y500119747D02*
G01*
X22868257Y500103393D01*
X22932414Y500076818D01*
X23023146Y500039236D01*
X23162544Y499946093D01*
X23281093Y499827544D01*
X23374236Y499688146D01*
X23411818Y499597414D01*
X23438393Y499533257D01*
X23454747Y499451041D01*
X23471100Y499368827D01*
X23471100Y499201173D01*
X23438393Y499036744D01*
X23374236Y498881854D01*
X23281093Y498742456D01*
X23162544Y498623907D01*
X23023146Y498530764D01*
X22932414Y498493182D01*
X22868257Y498466607D01*
X22786041Y498450253D01*
X22703827Y498433900D01*
X22536173Y498433900D01*
X22453959Y498450253D01*
X22371743Y498466607D01*
X22307586Y498493182D01*
X22216854Y498530764D01*
X22077456Y498623907D01*
X21958907Y498742456D01*
X21865764Y498881854D01*
X21801607Y499036744D01*
X21768900Y499201173D01*
X21768900Y499368827D01*
X21785253Y499451041D01*
X21801607Y499533257D01*
X21828182Y499597414D01*
X21865764Y499688146D01*
X21958907Y499827544D01*
X22077456Y499946093D01*
X22216854Y500039236D01*
X22307586Y500076818D01*
X22371743Y500103393D01*
X22453959Y500119747D01*
X22536173Y500136100D01*
X22703827Y500136100D01*
X22786041Y500119747D01*
G37*
G36*
X58809561Y500917034D02*
G01*
X58842383Y500907077D01*
X58872632Y500890908D01*
X58899148Y500869148D01*
X58920908Y500842632D01*
X58937077Y500812383D01*
X58947034Y500779561D01*
X58951000Y500739287D01*
X58951000Y499260713D01*
X58947034Y499220439D01*
X58937077Y499187617D01*
X58920908Y499157368D01*
X58899148Y499130852D01*
X58872632Y499109092D01*
X58842383Y499092923D01*
X58809561Y499082966D01*
X58769287Y499079000D01*
X56830713Y499079000D01*
X56790439Y499082966D01*
X56757617Y499092923D01*
X56727368Y499109092D01*
X56700852Y499130852D01*
X56679092Y499157368D01*
X56662923Y499187617D01*
X56652966Y499220439D01*
X56649000Y499260713D01*
X56649000Y500739287D01*
X56652966Y500779561D01*
X56662923Y500812383D01*
X56679092Y500842632D01*
X56700852Y500869148D01*
X56727368Y500890908D01*
X56757617Y500907077D01*
X56790439Y500917034D01*
X56830713Y500921000D01*
X58769287Y500921000D01*
X58809561Y500917034D01*
G37*
G36*
X42644914Y500973900D02*
G01*
X42793257Y500944393D01*
X42849732Y500921000D01*
X42948146Y500880236D01*
X43087544Y500787093D01*
X43206093Y500668544D01*
X43299236Y500529146D01*
X43324102Y500469114D01*
X43362920Y500375400D01*
X43363393Y500374256D01*
X43396100Y500209827D01*
X43396100Y500042173D01*
X43379746Y499959958D01*
X43376989Y499946093D01*
X43363393Y499877744D01*
X43299236Y499722854D01*
X43206093Y499583456D01*
X43087544Y499464907D01*
X42948146Y499371764D01*
X42880282Y499343654D01*
X42793257Y499307607D01*
X42714910Y499292023D01*
X42628827Y499274900D01*
X42461173Y499274900D01*
X42375090Y499292023D01*
X42296743Y499307607D01*
X42209718Y499343654D01*
X42141854Y499371764D01*
X42002456Y499464907D01*
X41883907Y499583456D01*
X41790764Y499722854D01*
X41726607Y499877744D01*
X41713012Y499946093D01*
X41710254Y499959958D01*
X41693900Y500042173D01*
X41693900Y500209827D01*
X41726607Y500374256D01*
X41727081Y500375400D01*
X41765898Y500469114D01*
X41790764Y500529146D01*
X41883907Y500668544D01*
X42002456Y500787093D01*
X42141854Y500880236D01*
X42240268Y500921000D01*
X42296743Y500944393D01*
X42445086Y500973900D01*
X42461173Y500977100D01*
X42628827Y500977100D01*
X42644914Y500973900D01*
G37*
G36*
X40104914Y500973900D02*
G01*
X40253257Y500944393D01*
X40309732Y500921000D01*
X40408146Y500880236D01*
X40547544Y500787093D01*
X40666093Y500668544D01*
X40759236Y500529146D01*
X40784102Y500469114D01*
X40822920Y500375400D01*
X40823393Y500374256D01*
X40856100Y500209827D01*
X40856100Y500042173D01*
X40839746Y499959958D01*
X40836989Y499946093D01*
X40823393Y499877744D01*
X40759236Y499722854D01*
X40666093Y499583456D01*
X40547544Y499464907D01*
X40408146Y499371764D01*
X40340282Y499343654D01*
X40253257Y499307607D01*
X40174910Y499292023D01*
X40088827Y499274900D01*
X39921173Y499274900D01*
X39835090Y499292023D01*
X39756743Y499307607D01*
X39669718Y499343654D01*
X39601854Y499371764D01*
X39462456Y499464907D01*
X39343907Y499583456D01*
X39250764Y499722854D01*
X39186607Y499877744D01*
X39173012Y499946093D01*
X39170254Y499959958D01*
X39153900Y500042173D01*
X39153900Y500209827D01*
X39186607Y500374256D01*
X39187081Y500375400D01*
X39225898Y500469114D01*
X39250764Y500529146D01*
X39343907Y500668544D01*
X39462456Y500787093D01*
X39601854Y500880236D01*
X39700268Y500921000D01*
X39756743Y500944393D01*
X39905086Y500973900D01*
X39921173Y500977100D01*
X40088827Y500977100D01*
X40104914Y500973900D01*
G37*
G36*
X29944914Y500973900D02*
G01*
X30093257Y500944393D01*
X30149732Y500921000D01*
X30248146Y500880236D01*
X30387544Y500787093D01*
X30506093Y500668544D01*
X30599236Y500529146D01*
X30624102Y500469114D01*
X30662920Y500375400D01*
X30663393Y500374256D01*
X30696100Y500209827D01*
X30696100Y500042173D01*
X30679746Y499959958D01*
X30676989Y499946093D01*
X30663393Y499877744D01*
X30599236Y499722854D01*
X30506093Y499583456D01*
X30387544Y499464907D01*
X30248146Y499371764D01*
X30180282Y499343654D01*
X30093257Y499307607D01*
X30014910Y499292023D01*
X29928827Y499274900D01*
X29761173Y499274900D01*
X29675090Y499292023D01*
X29596743Y499307607D01*
X29509718Y499343654D01*
X29441854Y499371764D01*
X29302456Y499464907D01*
X29183907Y499583456D01*
X29090764Y499722854D01*
X29026607Y499877744D01*
X29013012Y499946093D01*
X29010254Y499959958D01*
X28993900Y500042173D01*
X28993900Y500209827D01*
X29026607Y500374256D01*
X29027081Y500375400D01*
X29065898Y500469114D01*
X29090764Y500529146D01*
X29183907Y500668544D01*
X29302456Y500787093D01*
X29441854Y500880236D01*
X29540268Y500921000D01*
X29596743Y500944393D01*
X29745086Y500973900D01*
X29761173Y500977100D01*
X29928827Y500977100D01*
X29944914Y500973900D01*
G37*
G36*
X37564914Y500973900D02*
G01*
X37713257Y500944393D01*
X37769732Y500921000D01*
X37868146Y500880236D01*
X38007544Y500787093D01*
X38126093Y500668544D01*
X38219236Y500529146D01*
X38244102Y500469114D01*
X38282920Y500375400D01*
X38283393Y500374256D01*
X38316100Y500209827D01*
X38316100Y500042173D01*
X38299746Y499959958D01*
X38296989Y499946093D01*
X38283393Y499877744D01*
X38219236Y499722854D01*
X38126093Y499583456D01*
X38007544Y499464907D01*
X37868146Y499371764D01*
X37800282Y499343654D01*
X37713257Y499307607D01*
X37634910Y499292023D01*
X37548827Y499274900D01*
X37381173Y499274900D01*
X37295090Y499292023D01*
X37216743Y499307607D01*
X37129718Y499343654D01*
X37061854Y499371764D01*
X36922456Y499464907D01*
X36803907Y499583456D01*
X36710764Y499722854D01*
X36646607Y499877744D01*
X36633012Y499946093D01*
X36630254Y499959958D01*
X36613900Y500042173D01*
X36613900Y500209827D01*
X36646607Y500374256D01*
X36647081Y500375400D01*
X36685898Y500469114D01*
X36710764Y500529146D01*
X36803907Y500668544D01*
X36922456Y500787093D01*
X37061854Y500880236D01*
X37160268Y500921000D01*
X37216743Y500944393D01*
X37365086Y500973900D01*
X37381173Y500977100D01*
X37548827Y500977100D01*
X37564914Y500973900D01*
G37*
G36*
X35024914Y500973900D02*
G01*
X35173257Y500944393D01*
X35229732Y500921000D01*
X35328146Y500880236D01*
X35467544Y500787093D01*
X35586093Y500668544D01*
X35679236Y500529146D01*
X35704102Y500469114D01*
X35742920Y500375400D01*
X35743393Y500374256D01*
X35776100Y500209827D01*
X35776100Y500042173D01*
X35759746Y499959958D01*
X35756989Y499946093D01*
X35743393Y499877744D01*
X35679236Y499722854D01*
X35586093Y499583456D01*
X35467544Y499464907D01*
X35328146Y499371764D01*
X35260282Y499343654D01*
X35173257Y499307607D01*
X35094910Y499292023D01*
X35008827Y499274900D01*
X34841173Y499274900D01*
X34755090Y499292023D01*
X34676743Y499307607D01*
X34589718Y499343654D01*
X34521854Y499371764D01*
X34382456Y499464907D01*
X34263907Y499583456D01*
X34170764Y499722854D01*
X34106607Y499877744D01*
X34093012Y499946093D01*
X34090254Y499959958D01*
X34073900Y500042173D01*
X34073900Y500209827D01*
X34106607Y500374256D01*
X34107081Y500375400D01*
X34145898Y500469114D01*
X34170764Y500529146D01*
X34263907Y500668544D01*
X34382456Y500787093D01*
X34521854Y500880236D01*
X34620268Y500921000D01*
X34676743Y500944393D01*
X34825086Y500973900D01*
X34841173Y500977100D01*
X35008827Y500977100D01*
X35024914Y500973900D01*
G37*
G36*
X32484914Y500973900D02*
G01*
X32633257Y500944393D01*
X32689732Y500921000D01*
X32788146Y500880236D01*
X32927544Y500787093D01*
X33046093Y500668544D01*
X33139236Y500529146D01*
X33164102Y500469114D01*
X33202920Y500375400D01*
X33203393Y500374256D01*
X33236100Y500209827D01*
X33236100Y500042173D01*
X33219746Y499959958D01*
X33216989Y499946093D01*
X33203393Y499877744D01*
X33139236Y499722854D01*
X33046093Y499583456D01*
X32927544Y499464907D01*
X32788146Y499371764D01*
X32720282Y499343654D01*
X32633257Y499307607D01*
X32554910Y499292023D01*
X32468827Y499274900D01*
X32301173Y499274900D01*
X32215090Y499292023D01*
X32136743Y499307607D01*
X32049718Y499343654D01*
X31981854Y499371764D01*
X31842456Y499464907D01*
X31723907Y499583456D01*
X31630764Y499722854D01*
X31566607Y499877744D01*
X31553012Y499946093D01*
X31550254Y499959958D01*
X31533900Y500042173D01*
X31533900Y500209827D01*
X31566607Y500374256D01*
X31567081Y500375400D01*
X31605898Y500469114D01*
X31630764Y500529146D01*
X31723907Y500668544D01*
X31842456Y500787093D01*
X31981854Y500880236D01*
X32080268Y500921000D01*
X32136743Y500944393D01*
X32285086Y500973900D01*
X32301173Y500977100D01*
X32468827Y500977100D01*
X32484914Y500973900D01*
G37*
G36*
X-3238321Y505216100D02*
G01*
X-2950687Y505158886D01*
X-2506890Y504975059D01*
X-2107483Y504708184D01*
X-1767816Y504368517D01*
X-1500941Y503969110D01*
X-1317114Y503525313D01*
X-1223400Y503054181D01*
X-1223400Y502573819D01*
X-1317114Y502102687D01*
X-1500941Y501658890D01*
X-1767816Y501259483D01*
X-2107483Y500919816D01*
X-2506890Y500652941D01*
X-2950687Y500469114D01*
X-3186253Y500422257D01*
X-3421818Y500375400D01*
X-3902182Y500375400D01*
X-4137747Y500422257D01*
X-4373313Y500469114D01*
X-4817110Y500652941D01*
X-5216517Y500919816D01*
X-5556184Y501259483D01*
X-5823059Y501658890D01*
X-6006886Y502102687D01*
X-6100600Y502573819D01*
X-6100600Y503054181D01*
X-6006886Y503525313D01*
X-5823059Y503969110D01*
X-5556184Y504368517D01*
X-5216517Y504708184D01*
X-4817110Y504975059D01*
X-4373313Y505158886D01*
X-4085679Y505216100D01*
X-3902182Y505252600D01*
X-3421818Y505252600D01*
X-3238321Y505216100D01*
G37*
G36*
X7546042Y502659746D02*
G01*
X7628257Y502643393D01*
X7692414Y502616818D01*
X7783146Y502579236D01*
X7922544Y502486093D01*
X8041093Y502367544D01*
X8134236Y502228146D01*
X8160719Y502164209D01*
X8186203Y502102687D01*
X8198393Y502073256D01*
X8231100Y501908827D01*
X8231100Y501741173D01*
X8198393Y501576744D01*
X8134236Y501421854D01*
X8041093Y501282456D01*
X7922544Y501163907D01*
X7783146Y501070764D01*
X7692414Y501033182D01*
X7628257Y501006607D01*
X7546041Y500990253D01*
X7463827Y500973900D01*
X7296173Y500973900D01*
X7213959Y500990253D01*
X7131743Y501006607D01*
X7067586Y501033182D01*
X6976854Y501070764D01*
X6837456Y501163907D01*
X6718907Y501282456D01*
X6625764Y501421854D01*
X6561607Y501576744D01*
X6528900Y501741173D01*
X6528900Y501908827D01*
X6561607Y502073256D01*
X6573798Y502102687D01*
X6599281Y502164209D01*
X6625764Y502228146D01*
X6718907Y502367544D01*
X6837456Y502486093D01*
X6976854Y502579236D01*
X7067586Y502616818D01*
X7131743Y502643393D01*
X7213958Y502659746D01*
X7296173Y502676100D01*
X7463827Y502676100D01*
X7546042Y502659746D01*
G37*
G36*
X22786042Y502659746D02*
G01*
X22868257Y502643393D01*
X22932414Y502616818D01*
X23023146Y502579236D01*
X23162544Y502486093D01*
X23281093Y502367544D01*
X23374236Y502228146D01*
X23400719Y502164209D01*
X23426203Y502102687D01*
X23438393Y502073256D01*
X23471100Y501908827D01*
X23471100Y501741173D01*
X23438393Y501576744D01*
X23374236Y501421854D01*
X23281093Y501282456D01*
X23162544Y501163907D01*
X23023146Y501070764D01*
X22932414Y501033182D01*
X22868257Y501006607D01*
X22786041Y500990253D01*
X22703827Y500973900D01*
X22536173Y500973900D01*
X22453959Y500990253D01*
X22371743Y501006607D01*
X22307586Y501033182D01*
X22216854Y501070764D01*
X22077456Y501163907D01*
X21958907Y501282456D01*
X21865764Y501421854D01*
X21801607Y501576744D01*
X21768900Y501741173D01*
X21768900Y501908827D01*
X21801607Y502073256D01*
X21813798Y502102687D01*
X21839281Y502164209D01*
X21865764Y502228146D01*
X21958907Y502367544D01*
X22077456Y502486093D01*
X22216854Y502579236D01*
X22307586Y502616818D01*
X22371743Y502643393D01*
X22453958Y502659746D01*
X22536173Y502676100D01*
X22703827Y502676100D01*
X22786042Y502659746D01*
G37*
G36*
X-30338261Y504133083D02*
G01*
X-30088609Y504029674D01*
X-29863928Y503879547D01*
X-29672853Y503688472D01*
X-29522726Y503463791D01*
X-29419317Y503214139D01*
X-29366600Y502949111D01*
X-29366600Y502678889D01*
X-29419317Y502413861D01*
X-29522726Y502164209D01*
X-29672853Y501939528D01*
X-29863928Y501748453D01*
X-30088609Y501598326D01*
X-30338261Y501494917D01*
X-30603289Y501442200D01*
X-30873511Y501442200D01*
X-31138539Y501494917D01*
X-31388191Y501598326D01*
X-31612872Y501748453D01*
X-31803947Y501939528D01*
X-31954074Y502164209D01*
X-32057483Y502413861D01*
X-32110200Y502678889D01*
X-32110200Y502949111D01*
X-32057483Y503214139D01*
X-31954074Y503463791D01*
X-31803947Y503688472D01*
X-31612872Y503879547D01*
X-31388191Y504029674D01*
X-31138539Y504133083D01*
X-30873511Y504185800D01*
X-30603289Y504185800D01*
X-30338261Y504133083D01*
G37*
G36*
X-11212061Y504133083D02*
G01*
X-10962409Y504029674D01*
X-10737728Y503879547D01*
X-10546653Y503688472D01*
X-10396526Y503463791D01*
X-10293117Y503214139D01*
X-10240400Y502949111D01*
X-10240400Y502678889D01*
X-10293117Y502413861D01*
X-10396526Y502164209D01*
X-10546653Y501939528D01*
X-10737728Y501748453D01*
X-10962409Y501598326D01*
X-11212061Y501494917D01*
X-11477089Y501442200D01*
X-11747311Y501442200D01*
X-12012339Y501494917D01*
X-12261991Y501598326D01*
X-12486672Y501748453D01*
X-12677747Y501939528D01*
X-12827874Y502164209D01*
X-12931283Y502413861D01*
X-12984000Y502678889D01*
X-12984000Y502949111D01*
X-12931283Y503214139D01*
X-12827874Y503463791D01*
X-12677747Y503688472D01*
X-12486672Y503879547D01*
X-12261991Y504029674D01*
X-12012339Y504133083D01*
X-11747311Y504185800D01*
X-11477089Y504185800D01*
X-11212061Y504133083D01*
G37*
G36*
X7546041Y505199747D02*
G01*
X7628257Y505183393D01*
X7687422Y505158886D01*
X7783146Y505119236D01*
X7922544Y505026093D01*
X8041093Y504907544D01*
X8134236Y504768146D01*
X8198393Y504613256D01*
X8231100Y504448827D01*
X8231100Y504281173D01*
X8198393Y504116744D01*
X8134236Y503961854D01*
X8041093Y503822456D01*
X7922544Y503703907D01*
X7783146Y503610764D01*
X7692414Y503573182D01*
X7628257Y503546607D01*
X7546042Y503530254D01*
X7463827Y503513900D01*
X7296173Y503513900D01*
X7213958Y503530254D01*
X7131743Y503546607D01*
X7067586Y503573182D01*
X6976854Y503610764D01*
X6837456Y503703907D01*
X6718907Y503822456D01*
X6625764Y503961854D01*
X6561607Y504116744D01*
X6528900Y504281173D01*
X6528900Y504448827D01*
X6561607Y504613256D01*
X6625764Y504768146D01*
X6718907Y504907544D01*
X6837456Y505026093D01*
X6976854Y505119236D01*
X7072578Y505158886D01*
X7131743Y505183393D01*
X7213959Y505199747D01*
X7296173Y505216100D01*
X7463827Y505216100D01*
X7546041Y505199747D01*
G37*
G36*
X22786041Y505199747D02*
G01*
X22868257Y505183393D01*
X22927422Y505158886D01*
X23023146Y505119236D01*
X23162544Y505026093D01*
X23281093Y504907544D01*
X23374236Y504768146D01*
X23438393Y504613256D01*
X23471100Y504448827D01*
X23471100Y504281173D01*
X23438393Y504116744D01*
X23374236Y503961854D01*
X23281093Y503822456D01*
X23162544Y503703907D01*
X23023146Y503610764D01*
X22932414Y503573182D01*
X22868257Y503546607D01*
X22786042Y503530254D01*
X22703827Y503513900D01*
X22536173Y503513900D01*
X22453958Y503530254D01*
X22371743Y503546607D01*
X22307586Y503573182D01*
X22216854Y503610764D01*
X22077456Y503703907D01*
X21958907Y503822456D01*
X21865764Y503961854D01*
X21801607Y504116744D01*
X21768900Y504281173D01*
X21768900Y504448827D01*
X21801607Y504613256D01*
X21865764Y504768146D01*
X21958907Y504907544D01*
X22077456Y505026093D01*
X22216854Y505119236D01*
X22312578Y505158886D01*
X22371743Y505183393D01*
X22453959Y505199747D01*
X22536173Y505216100D01*
X22703827Y505216100D01*
X22786041Y505199747D01*
G37*
G36*
X22786042Y507739746D02*
G01*
X22868257Y507723393D01*
X22932414Y507696818D01*
X23023146Y507659236D01*
X23162544Y507566093D01*
X23281093Y507447544D01*
X23374236Y507308146D01*
X23438393Y507153256D01*
X23471100Y506988827D01*
X23471100Y506821173D01*
X23438393Y506656744D01*
X23374236Y506501854D01*
X23281093Y506362456D01*
X23162544Y506243907D01*
X23023146Y506150764D01*
X22932414Y506113182D01*
X22868257Y506086607D01*
X22786041Y506070253D01*
X22703827Y506053900D01*
X22536173Y506053900D01*
X22453959Y506070253D01*
X22371743Y506086607D01*
X22307586Y506113182D01*
X22216854Y506150764D01*
X22077456Y506243907D01*
X21958907Y506362456D01*
X21865764Y506501854D01*
X21801607Y506656744D01*
X21768900Y506821173D01*
X21768900Y506988827D01*
X21801607Y507153256D01*
X21865764Y507308146D01*
X21958907Y507447544D01*
X22077456Y507566093D01*
X22216854Y507659236D01*
X22307586Y507696818D01*
X22371743Y507723393D01*
X22453958Y507739746D01*
X22536173Y507756100D01*
X22703827Y507756100D01*
X22786042Y507739746D01*
G37*
G36*
X7546042Y507739746D02*
G01*
X7628257Y507723393D01*
X7692414Y507696818D01*
X7783146Y507659236D01*
X7922544Y507566093D01*
X8041093Y507447544D01*
X8134236Y507308146D01*
X8198393Y507153256D01*
X8231100Y506988827D01*
X8231100Y506821173D01*
X8198393Y506656744D01*
X8134236Y506501854D01*
X8041093Y506362456D01*
X7922544Y506243907D01*
X7783146Y506150764D01*
X7692414Y506113182D01*
X7628257Y506086607D01*
X7546041Y506070253D01*
X7463827Y506053900D01*
X7296173Y506053900D01*
X7213959Y506070253D01*
X7131743Y506086607D01*
X7067586Y506113182D01*
X6976854Y506150764D01*
X6837456Y506243907D01*
X6718907Y506362456D01*
X6625764Y506501854D01*
X6561607Y506656744D01*
X6528900Y506821173D01*
X6528900Y506988827D01*
X6561607Y507153256D01*
X6625764Y507308146D01*
X6718907Y507447544D01*
X6837456Y507566093D01*
X6976854Y507659236D01*
X7067586Y507696818D01*
X7131743Y507723393D01*
X7213958Y507739746D01*
X7296173Y507756100D01*
X7463827Y507756100D01*
X7546042Y507739746D01*
G37*
G36*
X41436041Y508214747D02*
G01*
X41518257Y508198393D01*
X41582414Y508171818D01*
X41673146Y508134236D01*
X41812544Y508041093D01*
X41931093Y507922544D01*
X42024236Y507783146D01*
X42088393Y507628256D01*
X42121100Y507463827D01*
X42121100Y507296173D01*
X42088393Y507131744D01*
X42024236Y506976854D01*
X41931093Y506837456D01*
X41812544Y506718907D01*
X41673146Y506625764D01*
X41582414Y506588182D01*
X41518257Y506561607D01*
X41436042Y506545254D01*
X41353827Y506528900D01*
X41186173Y506528900D01*
X41103958Y506545254D01*
X41021743Y506561607D01*
X40957586Y506588182D01*
X40866854Y506625764D01*
X40727456Y506718907D01*
X40608907Y506837456D01*
X40515764Y506976854D01*
X40451607Y507131744D01*
X40418900Y507296173D01*
X40418900Y507463827D01*
X40451607Y507628256D01*
X40515764Y507783146D01*
X40608907Y507922544D01*
X40727456Y508041093D01*
X40866854Y508134236D01*
X40957586Y508171818D01*
X41021743Y508198393D01*
X41103959Y508214747D01*
X41186173Y508231100D01*
X41353827Y508231100D01*
X41436041Y508214747D01*
G37*
G36*
X38896041Y508214747D02*
G01*
X38978257Y508198393D01*
X39042414Y508171818D01*
X39133146Y508134236D01*
X39272544Y508041093D01*
X39391093Y507922544D01*
X39484236Y507783146D01*
X39548393Y507628256D01*
X39581100Y507463827D01*
X39581100Y507296173D01*
X39548393Y507131744D01*
X39484236Y506976854D01*
X39391093Y506837456D01*
X39272544Y506718907D01*
X39133146Y506625764D01*
X39042414Y506588182D01*
X38978257Y506561607D01*
X38896042Y506545254D01*
X38813827Y506528900D01*
X38646173Y506528900D01*
X38563958Y506545254D01*
X38481743Y506561607D01*
X38417586Y506588182D01*
X38326854Y506625764D01*
X38187456Y506718907D01*
X38068907Y506837456D01*
X37975764Y506976854D01*
X37911607Y507131744D01*
X37878900Y507296173D01*
X37878900Y507463827D01*
X37911607Y507628256D01*
X37975764Y507783146D01*
X38068907Y507922544D01*
X38187456Y508041093D01*
X38326854Y508134236D01*
X38417586Y508171818D01*
X38481743Y508198393D01*
X38563959Y508214747D01*
X38646173Y508231100D01*
X38813827Y508231100D01*
X38896041Y508214747D01*
G37*
G36*
X36356041Y508214747D02*
G01*
X36438257Y508198393D01*
X36502414Y508171818D01*
X36593146Y508134236D01*
X36732544Y508041093D01*
X36851093Y507922544D01*
X36944236Y507783146D01*
X37008393Y507628256D01*
X37041100Y507463827D01*
X37041100Y507296173D01*
X37008393Y507131744D01*
X36944236Y506976854D01*
X36851093Y506837456D01*
X36732544Y506718907D01*
X36593146Y506625764D01*
X36502414Y506588182D01*
X36438257Y506561607D01*
X36356042Y506545254D01*
X36273827Y506528900D01*
X36106173Y506528900D01*
X36023958Y506545254D01*
X35941743Y506561607D01*
X35877586Y506588182D01*
X35786854Y506625764D01*
X35647456Y506718907D01*
X35528907Y506837456D01*
X35435764Y506976854D01*
X35371607Y507131744D01*
X35338900Y507296173D01*
X35338900Y507463827D01*
X35371607Y507628256D01*
X35435764Y507783146D01*
X35528907Y507922544D01*
X35647456Y508041093D01*
X35786854Y508134236D01*
X35877586Y508171818D01*
X35941743Y508198393D01*
X36023959Y508214747D01*
X36106173Y508231100D01*
X36273827Y508231100D01*
X36356041Y508214747D01*
G37*
G36*
X33816041Y508214747D02*
G01*
X33898257Y508198393D01*
X33962414Y508171818D01*
X34053146Y508134236D01*
X34192544Y508041093D01*
X34311093Y507922544D01*
X34404236Y507783146D01*
X34468393Y507628256D01*
X34501100Y507463827D01*
X34501100Y507296173D01*
X34468393Y507131744D01*
X34404236Y506976854D01*
X34311093Y506837456D01*
X34192544Y506718907D01*
X34053146Y506625764D01*
X33962414Y506588182D01*
X33898257Y506561607D01*
X33816042Y506545254D01*
X33733827Y506528900D01*
X33566173Y506528900D01*
X33483958Y506545254D01*
X33401743Y506561607D01*
X33337586Y506588182D01*
X33246854Y506625764D01*
X33107456Y506718907D01*
X32988907Y506837456D01*
X32895764Y506976854D01*
X32831607Y507131744D01*
X32798900Y507296173D01*
X32798900Y507463827D01*
X32831607Y507628256D01*
X32895764Y507783146D01*
X32988907Y507922544D01*
X33107456Y508041093D01*
X33246854Y508134236D01*
X33337586Y508171818D01*
X33401743Y508198393D01*
X33483959Y508214747D01*
X33566173Y508231100D01*
X33733827Y508231100D01*
X33816041Y508214747D01*
G37*
G36*
X49056041Y508214747D02*
G01*
X49138257Y508198393D01*
X49202414Y508171818D01*
X49293146Y508134236D01*
X49432544Y508041093D01*
X49551093Y507922544D01*
X49644236Y507783146D01*
X49708393Y507628256D01*
X49741100Y507463827D01*
X49741100Y507296173D01*
X49708393Y507131744D01*
X49644236Y506976854D01*
X49551093Y506837456D01*
X49432544Y506718907D01*
X49293146Y506625764D01*
X49202414Y506588182D01*
X49138257Y506561607D01*
X49056042Y506545254D01*
X48973827Y506528900D01*
X48806173Y506528900D01*
X48723958Y506545254D01*
X48641743Y506561607D01*
X48577586Y506588182D01*
X48486854Y506625764D01*
X48347456Y506718907D01*
X48228907Y506837456D01*
X48135764Y506976854D01*
X48071607Y507131744D01*
X48038900Y507296173D01*
X48038900Y507463827D01*
X48071607Y507628256D01*
X48135764Y507783146D01*
X48228907Y507922544D01*
X48347456Y508041093D01*
X48486854Y508134236D01*
X48577586Y508171818D01*
X48641743Y508198393D01*
X48723959Y508214747D01*
X48806173Y508231100D01*
X48973827Y508231100D01*
X49056041Y508214747D01*
G37*
G36*
X46516041Y508214747D02*
G01*
X46598257Y508198393D01*
X46662414Y508171818D01*
X46753146Y508134236D01*
X46892544Y508041093D01*
X47011093Y507922544D01*
X47104236Y507783146D01*
X47168393Y507628256D01*
X47201100Y507463827D01*
X47201100Y507296173D01*
X47168393Y507131744D01*
X47104236Y506976854D01*
X47011093Y506837456D01*
X46892544Y506718907D01*
X46753146Y506625764D01*
X46662414Y506588182D01*
X46598257Y506561607D01*
X46516042Y506545254D01*
X46433827Y506528900D01*
X46266173Y506528900D01*
X46183958Y506545254D01*
X46101743Y506561607D01*
X46037586Y506588182D01*
X45946854Y506625764D01*
X45807456Y506718907D01*
X45688907Y506837456D01*
X45595764Y506976854D01*
X45531607Y507131744D01*
X45498900Y507296173D01*
X45498900Y507463827D01*
X45531607Y507628256D01*
X45595764Y507783146D01*
X45688907Y507922544D01*
X45807456Y508041093D01*
X45946854Y508134236D01*
X46037586Y508171818D01*
X46101743Y508198393D01*
X46183959Y508214747D01*
X46266173Y508231100D01*
X46433827Y508231100D01*
X46516041Y508214747D01*
G37*
G36*
X43976041Y508214747D02*
G01*
X44058257Y508198393D01*
X44122414Y508171818D01*
X44213146Y508134236D01*
X44352544Y508041093D01*
X44471093Y507922544D01*
X44564236Y507783146D01*
X44628393Y507628256D01*
X44661100Y507463827D01*
X44661100Y507296173D01*
X44628393Y507131744D01*
X44564236Y506976854D01*
X44471093Y506837456D01*
X44352544Y506718907D01*
X44213146Y506625764D01*
X44122414Y506588182D01*
X44058257Y506561607D01*
X43976042Y506545254D01*
X43893827Y506528900D01*
X43726173Y506528900D01*
X43643958Y506545254D01*
X43561743Y506561607D01*
X43497586Y506588182D01*
X43406854Y506625764D01*
X43267456Y506718907D01*
X43148907Y506837456D01*
X43055764Y506976854D01*
X42991607Y507131744D01*
X42958900Y507296173D01*
X42958900Y507463827D01*
X42991607Y507628256D01*
X43055764Y507783146D01*
X43148907Y507922544D01*
X43267456Y508041093D01*
X43406854Y508134236D01*
X43497586Y508171818D01*
X43561743Y508198393D01*
X43643959Y508214747D01*
X43726173Y508231100D01*
X43893827Y508231100D01*
X43976041Y508214747D01*
G37*
G36*
X31276041Y508214747D02*
G01*
X31358257Y508198393D01*
X31422414Y508171818D01*
X31513146Y508134236D01*
X31652544Y508041093D01*
X31771093Y507922544D01*
X31864236Y507783146D01*
X31928393Y507628256D01*
X31961100Y507463827D01*
X31961100Y507296173D01*
X31928393Y507131744D01*
X31864236Y506976854D01*
X31771093Y506837456D01*
X31652544Y506718907D01*
X31513146Y506625764D01*
X31422414Y506588182D01*
X31358257Y506561607D01*
X31276042Y506545254D01*
X31193827Y506528900D01*
X31026173Y506528900D01*
X30943958Y506545254D01*
X30861743Y506561607D01*
X30797586Y506588182D01*
X30706854Y506625764D01*
X30567456Y506718907D01*
X30448907Y506837456D01*
X30355764Y506976854D01*
X30291607Y507131744D01*
X30258900Y507296173D01*
X30258900Y507463827D01*
X30291607Y507628256D01*
X30355764Y507783146D01*
X30448907Y507922544D01*
X30567456Y508041093D01*
X30706854Y508134236D01*
X30797586Y508171818D01*
X30861743Y508198393D01*
X30943959Y508214747D01*
X31026173Y508231100D01*
X31193827Y508231100D01*
X31276041Y508214747D01*
G37*
G36*
X7546041Y510279747D02*
G01*
X7628257Y510263393D01*
X7692414Y510236818D01*
X7783146Y510199236D01*
X7922544Y510106093D01*
X8041093Y509987544D01*
X8134236Y509848146D01*
X8198393Y509693256D01*
X8231100Y509528827D01*
X8231100Y509361173D01*
X8198393Y509196744D01*
X8134236Y509041854D01*
X8041093Y508902456D01*
X7922544Y508783907D01*
X7783146Y508690764D01*
X7692414Y508653182D01*
X7628257Y508626607D01*
X7546042Y508610254D01*
X7463827Y508593900D01*
X7296173Y508593900D01*
X7213958Y508610254D01*
X7131743Y508626607D01*
X7067586Y508653182D01*
X6976854Y508690764D01*
X6837456Y508783907D01*
X6718907Y508902456D01*
X6625764Y509041854D01*
X6561607Y509196744D01*
X6528900Y509361173D01*
X6528900Y509528827D01*
X6561607Y509693256D01*
X6625764Y509848146D01*
X6718907Y509987544D01*
X6837456Y510106093D01*
X6976854Y510199236D01*
X7067586Y510236818D01*
X7131743Y510263393D01*
X7213959Y510279747D01*
X7296173Y510296100D01*
X7463827Y510296100D01*
X7546041Y510279747D01*
G37*
G36*
X22786041Y510279747D02*
G01*
X22868257Y510263393D01*
X22932414Y510236818D01*
X23023146Y510199236D01*
X23162544Y510106093D01*
X23281093Y509987544D01*
X23374236Y509848146D01*
X23438393Y509693256D01*
X23471100Y509528827D01*
X23471100Y509361173D01*
X23438393Y509196744D01*
X23374236Y509041854D01*
X23281093Y508902456D01*
X23162544Y508783907D01*
X23023146Y508690764D01*
X22932414Y508653182D01*
X22868257Y508626607D01*
X22786042Y508610254D01*
X22703827Y508593900D01*
X22536173Y508593900D01*
X22453958Y508610254D01*
X22371743Y508626607D01*
X22307586Y508653182D01*
X22216854Y508690764D01*
X22077456Y508783907D01*
X21958907Y508902456D01*
X21865764Y509041854D01*
X21801607Y509196744D01*
X21768900Y509361173D01*
X21768900Y509528827D01*
X21801607Y509693256D01*
X21865764Y509848146D01*
X21958907Y509987544D01*
X22077456Y510106093D01*
X22216854Y510199236D01*
X22307586Y510236818D01*
X22371743Y510263393D01*
X22453959Y510279747D01*
X22536173Y510296100D01*
X22703827Y510296100D01*
X22786041Y510279747D01*
G37*
G36*
X7546041Y512819747D02*
G01*
X7628257Y512803393D01*
X7692414Y512776818D01*
X7783146Y512739236D01*
X7922544Y512646093D01*
X8041093Y512527544D01*
X8134236Y512388146D01*
X8198393Y512233256D01*
X8231100Y512068827D01*
X8231100Y511901173D01*
X8198393Y511736744D01*
X8134236Y511581854D01*
X8041093Y511442456D01*
X7922544Y511323907D01*
X7783146Y511230764D01*
X7692414Y511193182D01*
X7628257Y511166607D01*
X7546042Y511150254D01*
X7463827Y511133900D01*
X7296173Y511133900D01*
X7213958Y511150254D01*
X7131743Y511166607D01*
X7067586Y511193182D01*
X6976854Y511230764D01*
X6837456Y511323907D01*
X6718907Y511442456D01*
X6625764Y511581854D01*
X6561607Y511736744D01*
X6528900Y511901173D01*
X6528900Y512068827D01*
X6561607Y512233256D01*
X6625764Y512388146D01*
X6718907Y512527544D01*
X6837456Y512646093D01*
X6976854Y512739236D01*
X7067586Y512776818D01*
X7131743Y512803393D01*
X7213959Y512819747D01*
X7296173Y512836100D01*
X7463827Y512836100D01*
X7546041Y512819747D01*
G37*
G36*
X22786041Y512819747D02*
G01*
X22868257Y512803393D01*
X22932414Y512776818D01*
X23023146Y512739236D01*
X23162544Y512646093D01*
X23281093Y512527544D01*
X23374236Y512388146D01*
X23438393Y512233256D01*
X23471100Y512068827D01*
X23471100Y511901173D01*
X23438393Y511736744D01*
X23374236Y511581854D01*
X23281093Y511442456D01*
X23162544Y511323907D01*
X23023146Y511230764D01*
X22932414Y511193182D01*
X22868257Y511166607D01*
X22786042Y511150254D01*
X22703827Y511133900D01*
X22536173Y511133900D01*
X22453958Y511150254D01*
X22371743Y511166607D01*
X22307586Y511193182D01*
X22216854Y511230764D01*
X22077456Y511323907D01*
X21958907Y511442456D01*
X21865764Y511581854D01*
X21801607Y511736744D01*
X21768900Y511901173D01*
X21768900Y512068827D01*
X21801607Y512233256D01*
X21865764Y512388146D01*
X21958907Y512527544D01*
X22077456Y512646093D01*
X22216854Y512739236D01*
X22307586Y512776818D01*
X22371743Y512803393D01*
X22453959Y512819747D01*
X22536173Y512836100D01*
X22703827Y512836100D01*
X22786041Y512819747D01*
G37*
G36*
X-16777675Y513382910D02*
G01*
X-16638962Y513325453D01*
X-16514128Y513242042D01*
X-16407958Y513135872D01*
X-16324547Y513011038D01*
X-16267090Y512872325D01*
X-16237800Y512725071D01*
X-16237800Y512574929D01*
X-16267090Y512427675D01*
X-16324547Y512288962D01*
X-16407958Y512164128D01*
X-16514128Y512057958D01*
X-16638962Y511974547D01*
X-16777675Y511917090D01*
X-16924929Y511887800D01*
X-17075071Y511887800D01*
X-17222325Y511917090D01*
X-17361038Y511974547D01*
X-17485872Y512057958D01*
X-17592042Y512164128D01*
X-17675453Y512288962D01*
X-17732910Y512427675D01*
X-17762200Y512574929D01*
X-17762200Y512725071D01*
X-17732910Y512872325D01*
X-17675453Y513011038D01*
X-17592042Y513135872D01*
X-17485872Y513242042D01*
X-17361038Y513325453D01*
X-17222325Y513382910D01*
X-17075071Y513412200D01*
X-16924929Y513412200D01*
X-16777675Y513382910D01*
G37*
G36*
X22786041Y515359747D02*
G01*
X22868257Y515343393D01*
X22932414Y515316818D01*
X23023146Y515279236D01*
X23162544Y515186093D01*
X23281093Y515067544D01*
X23374236Y514928146D01*
X23438393Y514773256D01*
X23471100Y514608827D01*
X23471100Y514441173D01*
X23438393Y514276744D01*
X23374236Y514121854D01*
X23281093Y513982456D01*
X23162544Y513863907D01*
X23023146Y513770764D01*
X22932414Y513733182D01*
X22868257Y513706607D01*
X22786041Y513690253D01*
X22703827Y513673900D01*
X22536173Y513673900D01*
X22453959Y513690253D01*
X22371743Y513706607D01*
X22307586Y513733182D01*
X22216854Y513770764D01*
X22077456Y513863907D01*
X21958907Y513982456D01*
X21865764Y514121854D01*
X21801607Y514276744D01*
X21768900Y514441173D01*
X21768900Y514608827D01*
X21801607Y514773256D01*
X21865764Y514928146D01*
X21958907Y515067544D01*
X22077456Y515186093D01*
X22216854Y515279236D01*
X22307586Y515316818D01*
X22371743Y515343393D01*
X22453959Y515359747D01*
X22536173Y515376100D01*
X22703827Y515376100D01*
X22786041Y515359747D01*
G37*
G36*
X7546041Y515359747D02*
G01*
X7628257Y515343393D01*
X7692414Y515316818D01*
X7783146Y515279236D01*
X7922544Y515186093D01*
X8041093Y515067544D01*
X8134236Y514928146D01*
X8198393Y514773256D01*
X8231100Y514608827D01*
X8231100Y514441173D01*
X8198393Y514276744D01*
X8134236Y514121854D01*
X8041093Y513982456D01*
X7922544Y513863907D01*
X7783146Y513770764D01*
X7692414Y513733182D01*
X7628257Y513706607D01*
X7546041Y513690253D01*
X7463827Y513673900D01*
X7296173Y513673900D01*
X7213959Y513690253D01*
X7131743Y513706607D01*
X7067586Y513733182D01*
X6976854Y513770764D01*
X6837456Y513863907D01*
X6718907Y513982456D01*
X6625764Y514121854D01*
X6561607Y514276744D01*
X6528900Y514441173D01*
X6528900Y514608827D01*
X6561607Y514773256D01*
X6625764Y514928146D01*
X6718907Y515067544D01*
X6837456Y515186093D01*
X6976854Y515279236D01*
X7067586Y515316818D01*
X7131743Y515343393D01*
X7213959Y515359747D01*
X7296173Y515376100D01*
X7463827Y515376100D01*
X7546041Y515359747D01*
G37*
G36*
X7546042Y517899746D02*
G01*
X7628257Y517883393D01*
X7692414Y517856818D01*
X7783146Y517819236D01*
X7922544Y517726093D01*
X8041093Y517607544D01*
X8134236Y517468146D01*
X8198393Y517313256D01*
X8231100Y517148827D01*
X8231100Y516981173D01*
X8198393Y516816744D01*
X8134236Y516661854D01*
X8041093Y516522456D01*
X7922544Y516403907D01*
X7783146Y516310764D01*
X7692414Y516273182D01*
X7628257Y516246607D01*
X7546041Y516230253D01*
X7463827Y516213900D01*
X7296173Y516213900D01*
X7213959Y516230253D01*
X7131743Y516246607D01*
X7067586Y516273182D01*
X6976854Y516310764D01*
X6837456Y516403907D01*
X6718907Y516522456D01*
X6625764Y516661854D01*
X6561607Y516816744D01*
X6528900Y516981173D01*
X6528900Y517148827D01*
X6561607Y517313256D01*
X6625764Y517468146D01*
X6718907Y517607544D01*
X6837456Y517726093D01*
X6976854Y517819236D01*
X7067586Y517856818D01*
X7131743Y517883393D01*
X7213958Y517899746D01*
X7296173Y517916100D01*
X7463827Y517916100D01*
X7546042Y517899746D01*
G37*
G36*
X22786042Y517899746D02*
G01*
X22868257Y517883393D01*
X22932414Y517856818D01*
X23023146Y517819236D01*
X23162544Y517726093D01*
X23281093Y517607544D01*
X23374236Y517468146D01*
X23438393Y517313256D01*
X23471100Y517148827D01*
X23471100Y516981173D01*
X23438393Y516816744D01*
X23374236Y516661854D01*
X23281093Y516522456D01*
X23162544Y516403907D01*
X23023146Y516310764D01*
X22932414Y516273182D01*
X22868257Y516246607D01*
X22786041Y516230253D01*
X22703827Y516213900D01*
X22536173Y516213900D01*
X22453959Y516230253D01*
X22371743Y516246607D01*
X22307586Y516273182D01*
X22216854Y516310764D01*
X22077456Y516403907D01*
X21958907Y516522456D01*
X21865764Y516661854D01*
X21801607Y516816744D01*
X21768900Y516981173D01*
X21768900Y517148827D01*
X21801607Y517313256D01*
X21865764Y517468146D01*
X21958907Y517607544D01*
X22077456Y517726093D01*
X22216854Y517819236D01*
X22307586Y517856818D01*
X22371743Y517883393D01*
X22453958Y517899746D01*
X22536173Y517916100D01*
X22703827Y517916100D01*
X22786042Y517899746D01*
G37*
G36*
X60634239Y523188533D02*
G01*
X60948282Y523126066D01*
X61539926Y522880999D01*
X62072392Y522525216D01*
X62525216Y522072392D01*
X62880999Y521539926D01*
X63126066Y520948282D01*
X63126066Y520948281D01*
X63251000Y520320197D01*
X63251000Y519679803D01*
X63212425Y519485874D01*
X63126066Y519051718D01*
X62880999Y518460074D01*
X62525216Y517927608D01*
X62072392Y517474784D01*
X61539926Y517119001D01*
X60948282Y516873934D01*
X60660768Y516816744D01*
X60320197Y516749000D01*
X59679803Y516749000D01*
X59339232Y516816744D01*
X59051718Y516873934D01*
X58460074Y517119001D01*
X57927608Y517474784D01*
X57474784Y517927608D01*
X57119001Y518460074D01*
X56873934Y519051718D01*
X56787575Y519485874D01*
X56749000Y519679803D01*
X56749000Y520320197D01*
X56873934Y520948281D01*
X56873934Y520948282D01*
X57119001Y521539926D01*
X57474784Y522072392D01*
X57927608Y522525216D01*
X58460074Y522880999D01*
X59051718Y523126066D01*
X59365761Y523188533D01*
X59679803Y523251000D01*
X60320197Y523251000D01*
X60634239Y523188533D01*
G37*
G36*
X-44365761Y523188533D02*
G01*
X-44051718Y523126066D01*
X-43460074Y522880999D01*
X-42927608Y522525216D01*
X-42474784Y522072392D01*
X-42119001Y521539926D01*
X-41873934Y520948282D01*
X-41873934Y520948281D01*
X-41749000Y520320197D01*
X-41749000Y519679803D01*
X-41787575Y519485874D01*
X-41873934Y519051718D01*
X-42119001Y518460074D01*
X-42474784Y517927608D01*
X-42927608Y517474784D01*
X-43460074Y517119001D01*
X-44051718Y516873934D01*
X-44339232Y516816744D01*
X-44679803Y516749000D01*
X-45320197Y516749000D01*
X-45660768Y516816744D01*
X-45948282Y516873934D01*
X-46539926Y517119001D01*
X-47072392Y517474784D01*
X-47525216Y517927608D01*
X-47880999Y518460074D01*
X-48126066Y519051718D01*
X-48212425Y519485874D01*
X-48251000Y519679803D01*
X-48251000Y520320197D01*
X-48126066Y520948281D01*
X-48126066Y520948282D01*
X-47880999Y521539926D01*
X-47525216Y522072392D01*
X-47072392Y522525216D01*
X-46539926Y522880999D01*
X-45948282Y523126066D01*
X-45634239Y523188533D01*
X-45320197Y523251000D01*
X-44679803Y523251000D01*
X-44365761Y523188533D01*
G37*
G36*
X-4757605Y519914454D02*
G01*
X-4584534Y519842766D01*
X-4584533Y519842765D01*
X-4428773Y519738690D01*
X-4296310Y519606227D01*
X-4296309Y519606225D01*
X-4192234Y519450466D01*
X-4120546Y519277395D01*
X-4084000Y519093667D01*
X-4084000Y518906333D01*
X-4120546Y518722605D01*
X-4192234Y518549534D01*
X-4192235Y518549533D01*
X-4296310Y518393773D01*
X-4428773Y518261310D01*
X-4507182Y518208919D01*
X-4584534Y518157234D01*
X-4757605Y518085546D01*
X-4941333Y518049000D01*
X-5128667Y518049000D01*
X-5312395Y518085546D01*
X-5485466Y518157234D01*
X-5562818Y518208919D01*
X-5641227Y518261310D01*
X-5773690Y518393773D01*
X-5877765Y518549533D01*
X-5877766Y518549534D01*
X-5949454Y518722605D01*
X-5986000Y518906333D01*
X-5986000Y519093667D01*
X-5949454Y519277395D01*
X-5877766Y519450466D01*
X-5773691Y519606225D01*
X-5773690Y519606227D01*
X-5641227Y519738690D01*
X-5485467Y519842765D01*
X-5485466Y519842766D01*
X-5312395Y519914454D01*
X-5128667Y519951000D01*
X-4941333Y519951000D01*
X-4757605Y519914454D01*
G37*
G36*
X-6624000Y518049000D02*
G01*
X-8526000Y518049000D01*
X-8526000Y519951000D01*
X-6624000Y519951000D01*
X-6624000Y518049000D01*
G37*
G36*
X-16777675Y519732910D02*
G01*
X-16638962Y519675453D01*
X-16514128Y519592042D01*
X-16407958Y519485872D01*
X-16324547Y519361038D01*
X-16267090Y519222325D01*
X-16237800Y519075071D01*
X-16237800Y518924929D01*
X-16267090Y518777675D01*
X-16324547Y518638962D01*
X-16407958Y518514128D01*
X-16514128Y518407958D01*
X-16638962Y518324547D01*
X-16777675Y518267090D01*
X-16924929Y518237800D01*
X-17075071Y518237800D01*
X-17222325Y518267090D01*
X-17361038Y518324547D01*
X-17485872Y518407958D01*
X-17592042Y518514128D01*
X-17675453Y518638962D01*
X-17732910Y518777675D01*
X-17762200Y518924929D01*
X-17762200Y519075071D01*
X-17732910Y519222325D01*
X-17675453Y519361038D01*
X-17592042Y519485872D01*
X-17485872Y519592042D01*
X-17361038Y519675453D01*
X-17222325Y519732910D01*
X-17075071Y519762200D01*
X-16924929Y519762200D01*
X-16777675Y519732910D01*
G37*
M02*
