M48
; DRILL file {KiCad (5.1.5)-3} date 11/7/2020 2:43:39 PM
; FORMAT={-:-/ absolute / inch / decimal}
; #@! TF.CreationDate,2020-11-07T14:43:39-05:00
; #@! TF.GenerationSoftware,Kicad,Pcbnew,(5.1.5)-3
FMAT,2
INCH
T1C0.0157
T2C0.0290
T3C0.0315
T4C0.0354
T5C0.0400
T6C0.0472
T7C0.0520
T8C0.0940
T9C0.1250
T10C0.1260
T11C0.1400
%
G90
G05
T1
X0.4882Y19.9055
X0.4921Y19.8031
T2
X-0.6693Y20.4331
X-0.6693Y20.1831
T3
X0.5315Y16.9291
X0.6299Y16.9291
X0.3642Y18.1102
X0.4626Y18.1102
X1.1166Y18.255
X1.215Y18.255
X2.2756Y19.1181
X2.374Y19.1181
X0.5566Y17.475
X0.655Y17.475
T4
X-0.2982Y20.4331
X-0.1982Y20.4331
T5
X1.175Y19.69
X1.275Y19.69
X1.375Y19.69
X1.475Y19.69
X1.575Y19.69
X1.675Y19.69
X1.65Y18.135
X1.75Y18.135
X1.85Y18.135
X1.95Y18.135
X2.05Y18.135
X2.15Y18.135
X2.25Y18.135
X0.2906Y20.3569
X0.2906Y20.2569
X0.2906Y20.1569
X0.2906Y20.0569
X0.2906Y19.9569
X0.2906Y19.8569
X0.2906Y19.7569
X0.2906Y19.6569
X0.2906Y19.5569
X0.2906Y19.4569
X0.2906Y19.3569
X0.2906Y19.2569
X0.8906Y20.3569
X0.8906Y20.2569
X0.8906Y20.1569
X0.8906Y20.0569
X0.8906Y19.9569
X0.8906Y19.8569
X0.8906Y19.7569
X0.8906Y19.6569
X0.8906Y19.5569
X0.8906Y19.4569
X0.8906Y19.3569
X0.8906Y19.2569
X1.2248Y19.9756
X1.3248Y19.9756
X1.4248Y19.9756
X1.5248Y19.9756
X1.6248Y19.9756
X1.7248Y19.9756
X1.8248Y19.9756
X1.9248Y19.9756
X1.295Y17.309
X1.295Y17.181
X1.52Y17.82
X1.62Y17.82
X1.72Y17.82
X1.82Y17.82
X1.92Y17.82
X2.02Y17.82
X2.12Y17.82
X2.345Y17.309
X2.345Y17.181
X0.4Y18.845
X0.5Y18.845
X0.6Y18.845
X0.7Y18.845
T6
X2.2756Y19.685
X2.2756Y19.585
X2.2756Y19.485
X2.2756Y19.385
T7
X-1.2102Y19.7958
X-1.2102Y16.9508
X-0.4572Y19.7958
X-0.4572Y16.9508
T8
X-0.1442Y19.7958
T9
X-0.8342Y17.2858
X-0.1442Y17.2858
T10
X-1.7717Y16.3386
X2.3622Y16.3386
X-1.7717Y20.4724
X2.3622Y20.4724
T11
X-1.5222Y19.4608
X-0.8342Y19.4608
T0
M30
